<svg xmlns="http://www.w3.org/2000/svg" xmlns:xlink="http://www.w3.org/1999/xlink" width="280" zoomAndPan="magnify" viewBox="0 0 210 209.999996" height="280" preserveAspectRatio="xMidYMid meet" version="1.0"><defs><clipPath id="0e760b10e8"><path d="M 5.726562 0 L 204.476562 0 L 204.476562 210 L 5.726562 210 Z M 5.726562 0 " clip-rule="nonzero"/></clipPath><clipPath id="275b044988"><path d="M 103 0 L 204.476562 0 L 204.476562 210 L 103 210 Z M 103 0 " clip-rule="nonzero"/></clipPath></defs><g clip-path="url(#0e760b10e8)"><path fill="#e23237" d="M 5.976562 34.808594 L 103.789062 -0.00390625 L 204.226562 34.191406 L 187.96875 163.46875 L 103.789062 210.035156 L 20.925781 164.082031 L 5.976562 34.8125 Z M 5.976562 34.808594 " fill-opacity="1" fill-rule="nonzero"/></g><g clip-path="url(#275b044988)"><path fill="#b52e31" d="M 204.226562 34.191406 L 103.789062 -0.00390625 L 103.789062 210.027344 L 187.972656 163.53125 L 204.226562 34.191406 L 204.226562 34.1875 Z M 204.226562 34.191406 " fill-opacity="1" fill-rule="nonzero"/></g><path fill="#ffffff" d="M 103.945312 24.519531 L 42.996094 159.980469 L 65.761719 159.59375 L 78 129.039062 L 132.671875 129.039062 L 146.074219 159.980469 L 167.835938 160.367188 L 103.945312 24.519531 L 103.945312 24.523438 Z M 104.097656 67.921875 L 124.695312 110.933594 L 85.976562 110.933594 Z M 104.097656 67.921875 " fill-opacity="1" fill-rule="nonzero"/></svg>