<svg xmlns="http://www.w3.org/2000/svg" xmlns:xlink="http://www.w3.org/1999/xlink" width="280" zoomAndPan="magnify" viewBox="0 0 210 209.999996" height="280" preserveAspectRatio="xMidYMid meet" version="1.0"><path fill="#5382a1" d="M 78.28125 161.023438 C 78.28125 161.023438 70.308594 165.65625 83.953125 167.222656 C 100.480469 169.101562 108.925781 168.832031 127.136719 165.390625 C 127.136719 165.390625 131.925781 168.386719 138.617188 170.984375 C 97.789062 188.457031 46.210938 169.972656 78.28125 161.023438 " fill-opacity="1" fill-rule="nonzero"/><path fill="#5382a1" d="M 73.289062 138.226562 C 73.289062 138.226562 64.351562 144.835938 78.003906 146.246094 C 95.65625 148.0625 109.601562 148.210938 133.726562 143.570312 C 133.726562 143.570312 137.066406 146.953125 142.3125 148.796875 C 92.945312 163.207031 37.960938 149.9375 73.289062 138.226562 " fill-opacity="1" fill-rule="nonzero"/><path fill="#e76f00" d="M 115.347656 99.550781 C 125.410156 111.121094 112.703125 121.527344 112.703125 121.527344 C 112.703125 121.527344 138.253906 108.359375 126.519531 91.867188 C 115.5625 76.492188 107.160156 68.855469 152.652344 42.515625 C 152.652344 42.515625 81.25 60.316406 115.347656 99.550781 " fill-opacity="1" fill-rule="nonzero"/><path fill="#5382a1" d="M 169.347656 177.886719 C 169.347656 177.886719 175.25 182.742188 162.855469 186.496094 C 139.289062 193.625 64.761719 195.777344 44.0625 186.78125 C 36.621094 183.550781 50.578125 179.0625 54.96875 178.117188 C 59.546875 177.128906 62.160156 177.316406 62.160156 177.316406 C 53.886719 171.492188 8.667969 188.742188 39.195312 193.683594 C 122.4375 207.160156 190.941406 187.613281 169.347656 177.886719 " fill-opacity="1" fill-rule="nonzero"/><path fill="#5382a1" d="M 82.113281 114.605469 C 82.113281 114.605469 44.207031 123.59375 68.6875 126.855469 C 79.027344 128.242188 99.636719 127.929688 118.828125 126.320312 C 134.515625 125 150.273438 122.191406 150.273438 122.191406 C 150.273438 122.191406 144.742188 124.558594 140.738281 127.285156 C 102.238281 137.394531 27.878906 132.691406 49.285156 122.351562 C 67.390625 113.617188 82.113281 114.605469 82.113281 114.605469 " fill-opacity="1" fill-rule="nonzero"/><path fill="#5382a1" d="M 150.113281 152.554688 C 189.246094 132.253906 171.148438 112.742188 158.519531 115.371094 C 155.429688 116.015625 154.046875 116.570312 154.046875 116.570312 C 154.046875 116.570312 155.195312 114.773438 157.390625 113.996094 C 182.375 105.230469 201.589844 139.859375 149.324219 153.578125 C 149.324219 153.578125 149.933594 153.035156 150.113281 152.554688 " fill-opacity="1" fill-rule="nonzero"/><path fill="#e76f00" d="M 126.519531 -0.015625 C 126.519531 -0.015625 148.195312 21.628906 105.964844 54.910156 C 72.105469 81.605469 98.246094 96.832031 105.953125 114.226562 C 86.1875 96.421875 71.683594 80.746094 81.414062 66.160156 C 95.699219 44.746094 135.265625 34.363281 126.519531 -0.0195312 " fill-opacity="1" fill-rule="nonzero"/><path fill="#5382a1" d="M 85.957031 207.570312 C 123.519531 209.96875 181.195312 206.238281 182.558594 188.492188 C 182.558594 188.492188 179.933594 195.214844 151.519531 200.558594 C 119.460938 206.582031 79.917969 205.882812 56.46875 202.015625 C 56.46875 202.015625 61.269531 205.984375 85.957031 207.570312 " fill-opacity="1" fill-rule="nonzero"/></svg>