<svg xmlns="http://www.w3.org/2000/svg" xmlns:xlink="http://www.w3.org/1999/xlink" width="280" zoomAndPan="magnify" viewBox="0 0 210 209.999996" height="280" preserveAspectRatio="xMidYMid meet" version="1.0"><rect x="-21" width="252" fill="#f7df1e" y="-21" height="251.999995" fill-opacity="1"/><path fill="#000000" d="M 55.21875 175.488281 L 71.289062 165.769531 C 74.386719 171.265625 77.207031 175.914062 83.976562 175.914062 C 90.457031 175.914062 94.550781 173.371094 94.550781 163.511719 L 94.550781 96.410156 L 114.277344 96.410156 L 114.277344 163.792969 C 114.277344 184.226562 102.300781 193.535156 84.820312 193.535156 C 69.03125 193.535156 59.867188 185.359375 55.214844 175.488281 " fill-opacity="1" fill-rule="nonzero"/><path fill="#000000" d="M 125 173.371094 L 141.070312 164.070312 C 145.300781 170.976562 150.796875 176.054688 160.519531 176.054688 C 168.695312 176.054688 173.914062 171.96875 173.914062 166.328125 C 173.914062 159.558594 168.558594 157.164062 159.535156 153.21875 L 154.605469 151.101562 C 140.363281 145.039062 130.921875 137.433594 130.921875 121.355469 C 130.921875 106.558594 142.191406 95.28125 159.820312 95.28125 C 172.363281 95.28125 181.386719 99.652344 187.867188 111.070312 L 172.503906 120.9375 C 169.125 114.875 165.457031 112.480469 159.820312 112.480469 C 154.039062 112.480469 150.371094 116.148438 150.371094 120.9375 C 150.371094 126.863281 154.039062 129.257812 162.496094 132.921875 L 167.425781 135.03125 C 184.199219 142.226562 193.652344 149.550781 193.652344 166.046875 C 193.652344 183.808594 179.699219 193.535156 160.945312 193.535156 C 142.621094 193.535156 130.78125 184.792969 125 173.375 " fill-opacity="1" fill-rule="nonzero"/></svg>