<svg xmlns="http://www.w3.org/2000/svg" xmlns:xlink="http://www.w3.org/1999/xlink" width="280" zoomAndPan="magnify" viewBox="0 0 210 209.999996" height="280" preserveAspectRatio="xMidYMid meet" version="1.0"><path fill="#f03c2e" d="M 206.035156 95.648438 L 114.351562 3.964844 C 113.722656 3.335938 113.039062 2.773438 112.300781 2.28125 C 111.566406 1.789062 110.785156 1.371094 109.964844 1.03125 C 109.144531 0.691406 108.300781 0.433594 107.429688 0.261719 C 106.558594 0.0898438 105.679688 0 104.789062 0 C 103.902344 0 103.023438 0.0898438 102.152344 0.261719 C 101.28125 0.433594 100.433594 0.691406 99.613281 1.03125 C 98.792969 1.371094 98.015625 1.789062 97.277344 2.28125 C 96.539062 2.773438 95.855469 3.335938 95.226562 3.964844 L 76.195312 22.996094 L 100.347656 47.144531 C 105.964844 45.175781 112.394531 46.523438 116.871094 50.996094 C 117.9375 52.0625 118.835938 53.257812 119.5625 54.578125 C 120.292969 55.898438 120.828125 57.292969 121.164062 58.761719 C 121.5 60.230469 121.628906 61.71875 121.546875 63.222656 C 121.464844 64.730469 121.179688 66.195312 120.683594 67.621094 L 143.960938 90.898438 C 149.59375 88.953125 156.089844 90.207031 160.585938 94.714844 C 160.957031 95.089844 161.3125 95.480469 161.644531 95.886719 C 161.980469 96.292969 162.292969 96.71875 162.585938 97.15625 C 162.878906 97.59375 163.152344 98.046875 163.398438 98.511719 C 163.648438 98.976562 163.875 99.453125 164.074219 99.9375 C 164.277344 100.425781 164.457031 100.921875 164.609375 101.425781 C 164.761719 101.929688 164.890625 102.441406 164.992188 102.957031 C 165.09375 103.476562 165.171875 103.996094 165.226562 104.523438 C 165.277344 105.046875 165.300781 105.574219 165.300781 106.101562 C 165.300781 106.628906 165.277344 107.152344 165.226562 107.679688 C 165.171875 108.203125 165.097656 108.722656 164.992188 109.242188 C 164.890625 109.757812 164.761719 110.269531 164.609375 110.773438 C 164.457031 111.277344 164.277344 111.773438 164.078125 112.261719 C 163.875 112.75 163.648438 113.222656 163.402344 113.6875 C 163.152344 114.15625 162.882812 114.605469 162.589844 115.042969 C 162.296875 115.484375 161.980469 115.90625 161.648438 116.3125 C 161.3125 116.722656 160.960938 117.109375 160.585938 117.484375 C 160.214844 117.855469 159.824219 118.210938 159.414062 118.546875 C 159.007812 118.878906 158.585938 119.191406 158.148438 119.484375 C 157.707031 119.777344 157.257812 120.050781 156.792969 120.296875 C 156.324219 120.546875 155.851562 120.773438 155.363281 120.972656 C 154.875 121.175781 154.378906 121.351562 153.875 121.503906 C 153.371094 121.65625 152.859375 121.785156 152.34375 121.886719 C 151.824219 121.992188 151.304688 122.066406 150.777344 122.121094 C 150.253906 122.171875 149.726562 122.195312 149.199219 122.195312 C 148.671875 122.195312 148.148438 122.171875 147.621094 122.117188 C 147.097656 122.066406 146.578125 121.988281 146.058594 121.886719 C 145.542969 121.78125 145.03125 121.65625 144.527344 121.5 C 144.023438 121.347656 143.527344 121.171875 143.039062 120.96875 C 142.554688 120.765625 142.078125 120.539062 141.613281 120.292969 C 141.148438 120.042969 140.695312 119.773438 140.257812 119.480469 C 139.820312 119.1875 139.398438 118.871094 138.988281 118.535156 C 138.582031 118.203125 138.191406 117.847656 137.820312 117.476562 C 133.09375 112.75 131.925781 105.792969 134.316406 99.972656 L 112.605469 78.265625 L 112.605469 135.390625 C 114.191406 136.175781 115.613281 137.191406 116.871094 138.4375 C 117.246094 138.808594 117.597656 139.199219 117.933594 139.605469 C 118.265625 140.011719 118.582031 140.4375 118.871094 140.875 C 119.164062 141.3125 119.4375 141.765625 119.683594 142.230469 C 119.933594 142.695312 120.160156 143.167969 120.359375 143.65625 C 120.5625 144.144531 120.738281 144.640625 120.890625 145.144531 C 121.046875 145.648438 121.171875 146.160156 121.277344 146.675781 C 121.378906 147.191406 121.457031 147.714844 121.507812 148.238281 C 121.558594 148.761719 121.585938 149.289062 121.585938 149.816406 C 121.585938 150.34375 121.558594 150.867188 121.507812 151.394531 C 121.457031 151.917969 121.378906 152.4375 121.277344 152.953125 C 121.171875 153.472656 121.046875 153.984375 120.890625 154.488281 C 120.738281 154.992188 120.5625 155.488281 120.359375 155.972656 C 120.160156 156.460938 119.933594 156.9375 119.683594 157.402344 C 119.4375 157.867188 119.164062 158.316406 118.871094 158.757812 C 118.582031 159.195312 118.265625 159.617188 117.933594 160.023438 C 117.597656 160.433594 117.246094 160.820312 116.871094 161.195312 C 116.5 161.566406 116.109375 161.921875 115.703125 162.253906 C 115.292969 162.589844 114.871094 162.902344 114.433594 163.195312 C 113.996094 163.488281 113.542969 163.757812 113.078125 164.007812 C 112.613281 164.257812 112.136719 164.480469 111.652344 164.683594 C 111.164062 164.886719 110.667969 165.0625 110.164062 165.214844 C 109.660156 165.367188 109.148438 165.496094 108.632812 165.597656 C 108.113281 165.703125 107.59375 165.777344 107.070312 165.832031 C 106.546875 165.882812 106.019531 165.90625 105.492188 165.90625 C 104.964844 165.90625 104.4375 165.882812 103.914062 165.832031 C 103.390625 165.777344 102.871094 165.703125 102.351562 165.597656 C 101.835938 165.496094 101.324219 165.367188 100.820312 165.214844 C 100.316406 165.0625 99.820312 164.886719 99.332031 164.683594 C 98.847656 164.480469 98.371094 164.257812 97.90625 164.007812 C 97.441406 163.757812 96.988281 163.488281 96.550781 163.195312 C 96.113281 162.902344 95.691406 162.589844 95.28125 162.253906 C 94.875 161.921875 94.484375 161.566406 94.113281 161.195312 C 93.738281 160.820312 93.386719 160.433594 93.050781 160.023438 C 92.714844 159.617188 92.402344 159.195312 92.109375 158.757812 C 91.816406 158.320312 91.542969 157.867188 91.296875 157.402344 C 91.046875 156.9375 90.820312 156.460938 90.621094 155.976562 C 90.417969 155.488281 90.242188 154.992188 90.085938 154.488281 C 89.933594 153.984375 89.804688 153.472656 89.703125 152.957031 C 89.601562 152.4375 89.523438 151.917969 89.472656 151.394531 C 89.417969 150.867188 89.394531 150.34375 89.394531 149.816406 C 89.394531 149.289062 89.417969 148.761719 89.472656 148.238281 C 89.523438 147.710938 89.601562 147.191406 89.703125 146.675781 C 89.804688 146.15625 89.933594 145.648438 90.085938 145.144531 C 90.242188 144.636719 90.417969 144.144531 90.621094 143.65625 C 90.820312 143.167969 91.046875 142.691406 91.296875 142.226562 C 91.542969 141.761719 91.816406 141.3125 92.109375 140.875 C 92.402344 140.433594 92.714844 140.011719 93.050781 139.605469 C 93.386719 139.199219 93.738281 138.808594 94.113281 138.4375 C 95.667969 136.886719 97.394531 135.710938 99.382812 134.925781 L 99.382812 77.265625 C 97.464844 76.480469 95.667969 75.316406 94.113281 73.757812 C 93.550781 73.195312 93.035156 72.59375 92.5625 71.957031 C 92.085938 71.320312 91.664062 70.652344 91.289062 69.949219 C 90.917969 69.25 90.597656 68.523438 90.328125 67.777344 C 90.0625 67.03125 89.851562 66.265625 89.699219 65.488281 C 89.546875 64.707031 89.449219 63.921875 89.414062 63.128906 C 89.378906 62.335938 89.398438 61.542969 89.480469 60.753906 C 89.558594 59.964844 89.699219 59.183594 89.894531 58.414062 C 90.089844 57.644531 90.339844 56.894531 90.648438 56.160156 L 66.824219 32.351562 L 3.957031 95.15625 C 3.328125 95.785156 2.765625 96.46875 2.273438 97.207031 C 1.78125 97.945312 1.363281 98.722656 1.023438 99.542969 C 0.683594 100.363281 0.425781 101.210938 0.253906 102.082031 C 0.078125 102.953125 -0.0078125 103.832031 -0.0078125 104.722656 C -0.0078125 105.609375 0.078125 106.488281 0.253906 107.359375 C 0.425781 108.230469 0.683594 109.078125 1.023438 109.898438 C 1.363281 110.71875 1.78125 111.5 2.273438 112.238281 C 2.765625 112.976562 3.328125 113.65625 3.957031 114.285156 L 95.648438 205.964844 C 96.277344 206.59375 96.960938 207.152344 97.699219 207.644531 C 98.433594 208.140625 99.214844 208.554688 100.035156 208.894531 C 100.855469 209.234375 101.699219 209.492188 102.570312 209.667969 C 103.441406 209.839844 104.320312 209.925781 105.210938 209.925781 C 106.097656 209.925781 106.976562 209.839844 107.847656 209.667969 C 108.71875 209.492188 109.566406 209.234375 110.386719 208.894531 C 111.207031 208.554688 111.984375 208.140625 112.722656 207.644531 C 113.460938 207.152344 114.144531 206.59375 114.773438 205.964844 L 206.035156 114.84375 C 206.664062 114.214844 207.226562 113.53125 207.71875 112.792969 C 208.214844 112.054688 208.628906 111.277344 208.972656 110.457031 C 209.3125 109.636719 209.566406 108.789062 209.742188 107.917969 C 209.914062 107.046875 210 106.167969 210 105.277344 C 210 104.390625 209.914062 103.511719 209.742188 102.640625 C 209.566406 101.769531 209.3125 100.921875 208.972656 100.101562 C 208.628906 99.28125 208.214844 98.5 207.71875 97.761719 C 207.226562 97.023438 206.664062 96.34375 206.035156 95.714844 " fill-opacity="1" fill-rule="nonzero"/></svg>