<svg xmlns="http://www.w3.org/2000/svg" xmlns:xlink="http://www.w3.org/1999/xlink" width="280" zoomAndPan="magnify" viewBox="0 0 210 209.999996" height="280" preserveAspectRatio="xMidYMid meet" version="1.0"><path fill="#f06292" d="M 104.957031 0.167969 C 162.972656 0.167969 210 47.195312 210 105.210938 C 210 163.222656 162.972656 210.253906 104.957031 210.253906 C 46.949219 210.253906 -0.0859375 163.226562 -0.0859375 105.210938 C -0.078125 47.195312 46.949219 0.167969 104.957031 0.167969 Z M 104.957031 0.167969 " fill-opacity="1" fill-rule="evenodd"/><path fill="#ffffff" d="M 170.847656 45.125 C 166.089844 26.46875 135.15625 20.335938 105.882812 30.738281 C 88.464844 36.925781 69.601562 46.640625 56.035156 59.328125 C 39.910156 74.410156 37.34375 87.535156 38.398438 93.019531 C 42.136719 112.375 68.65625 125.027344 79.558594 134.414062 L 79.558594 134.472656 C 76.34375 136.058594 52.816406 147.964844 47.308594 160.136719 C 41.5 172.980469 48.238281 182.195312 52.695312 183.4375 C 66.511719 187.277344 80.683594 180.367188 88.304688 169.003906 C 95.65625 158.035156 95.046875 143.878906 91.851562 136.832031 C 96.257812 135.667969 101.398438 135.148438 107.925781 135.910156 C 126.351562 138.0625 129.96875 149.570312 129.273438 154.382812 C 128.585938 159.199219 124.714844 161.847656 123.425781 162.648438 C 122.132812 163.449219 121.742188 163.726562 121.847656 164.316406 C 122.003906 165.179688 122.601562 165.148438 123.707031 164.964844 C 125.222656 164.707031 133.378906 161.046875 133.730469 152.15625 C 134.171875 140.875 123.363281 128.253906 104.214844 128.578125 C 96.332031 128.714844 91.375 129.464844 87.789062 130.800781 C 87.527344 130.5 87.253906 130.199219 86.980469 129.898438 C 75.140625 117.269531 53.257812 108.335938 54.183594 91.359375 C 54.519531 85.183594 56.667969 68.929688 96.230469 49.214844 C 128.640625 33.0625 154.589844 37.511719 159.074219 47.359375 C 165.480469 61.429688 145.207031 87.585938 111.546875 91.359375 C 98.722656 92.792969 91.96875 87.828125 90.289062 85.972656 C 88.519531 84.027344 88.257812 83.9375 87.601562 84.304688 C 86.527344 84.898438 87.207031 86.621094 87.601562 87.648438 C 88.605469 90.261719 92.730469 94.898438 99.757812 97.210938 C 105.941406 99.242188 121 100.351562 139.210938 93.308594 C 159.601562 85.414062 175.527344 63.46875 170.847656 45.125 Z M 84.085938 140.199219 C 85.609375 145.851562 85.441406 151.125 83.867188 155.898438 C 83.695312 156.429688 83.5 156.953125 83.289062 157.472656 C 83.078125 157.988281 82.851562 158.503906 82.609375 159.011719 C 81.394531 161.535156 79.757812 163.898438 77.757812 166.085938 C 71.652344 172.742188 63.125 175.257812 59.472656 173.136719 C 55.527344 170.847656 57.503906 161.464844 64.578125 153.980469 C 72.191406 145.929688 83.140625 140.757812 83.140625 140.757812 L 83.125 140.726562 C 83.441406 140.550781 83.761719 140.378906 84.085938 140.199219 Z M 84.085938 140.199219 " fill-opacity="1" fill-rule="nonzero"/></svg>