<svg xmlns="http://www.w3.org/2000/svg" xmlns:xlink="http://www.w3.org/1999/xlink" width="280" zoomAndPan="magnify" viewBox="0 0 210 209.999996" height="280" preserveAspectRatio="xMidYMid meet" version="1.0"><rect x="-21" width="252" fill="#007acc" y="-21" height="251.999995" fill-opacity="1"/><path fill="#ffffff" d="M 46.429688 105.6875 L 46.363281 114.292969 L 73.695312 114.292969 L 73.695312 191.960938 L 93.03125 191.960938 L 93.03125 114.292969 L 120.363281 114.292969 L 120.363281 105.859375 C 120.363281 101.195312 120.265625 97.289062 120.132812 97.191406 C 120.03125 97.058594 103.398438 96.992188 83.230469 97.027344 L 46.527344 97.125 Z M 46.429688 105.6875 " fill-opacity="1" fill-rule="nonzero"/><path fill="#ffffff" d="M 169.453125 96.886719 C 174.785156 98.214844 178.851562 100.585938 182.585938 104.449219 C 184.511719 106.515625 187.382812 110.28125 187.613281 111.183594 C 187.679688 111.457031 178.550781 117.582031 173.011719 121.019531 C 172.816406 121.152344 172.019531 120.28125 171.117188 118.953125 C 168.417969 115.015625 165.582031 113.316406 161.25 113.023438 C 154.882812 112.585938 150.78125 115.917969 150.816406 121.488281 C 150.816406 123.121094 151.050781 124.089844 151.71875 125.417969 C 153.121094 128.320312 155.71875 130.050781 163.882812 133.585938 C 178.917969 140.050781 185.351562 144.316406 189.351562 150.386719 C 193.816406 157.15625 194.816406 167.949219 191.78125 175.980469 C 188.449219 184.71875 180.183594 190.648438 168.550781 192.617188 C 164.949219 193.25 156.417969 193.152344 152.546875 192.453125 C 144.113281 190.953125 136.113281 186.785156 131.183594 181.320312 C 129.25 179.1875 125.484375 173.617188 125.714844 173.21875 C 125.820312 173.085938 126.679688 172.550781 127.648438 171.988281 C 128.585938 171.453125 132.121094 169.417969 135.449219 167.484375 L 141.480469 163.988281 L 142.75 165.851562 C 144.515625 168.550781 148.386719 172.25 150.714844 173.488281 C 157.417969 177.015625 166.613281 176.515625 171.148438 172.453125 C 173.085938 170.683594 173.882812 168.851562 173.882812 166.152344 C 173.882812 163.71875 173.585938 162.652344 172.316406 160.820312 C 170.683594 158.484375 167.351562 156.515625 157.886719 152.421875 C 147.050781 147.753906 142.382812 144.851562 138.117188 140.25 C 135.648438 137.582031 133.316406 133.316406 132.347656 129.75 C 131.546875 126.789062 131.347656 119.355469 131.980469 116.351562 C 134.21875 105.886719 142.121094 98.585938 153.511719 96.417969 C 157.214844 95.722656 165.816406 95.984375 169.453125 96.886719 Z M 169.453125 96.886719 " fill-opacity="1" fill-rule="nonzero"/></svg>