<svg xmlns="http://www.w3.org/2000/svg" xmlns:xlink="http://www.w3.org/1999/xlink" width="280" zoomAndPan="magnify" viewBox="0 0 210 209.999996" height="280" preserveAspectRatio="xMidYMid meet" version="1.0"><defs><clipPath id="57b4e7ac14"><path d="M 33 1 L 177.316406 1 L 177.316406 210 L 33 210 Z M 33 1 " clip-rule="nonzero"/></clipPath><clipPath id="4893e86e01"><path d="M 33 1 L 177.316406 1 L 177.316406 210 L 33 210 Z M 33 1 " clip-rule="nonzero"/></clipPath></defs><g clip-path="url(#57b4e7ac14)"><path fill="#ff7351" d="M 33.289062 46.0625 L 33.101562 45.714844 L 33.101562 45.339844 C 33.089844 44.457031 33.296875 43.625 33.722656 42.851562 C 34.148438 42.074219 34.734375 41.457031 35.488281 40.992188 C 36.105469 40.632812 36.769531 40.449219 37.480469 40.445312 C 38.195312 40.441406 38.859375 40.613281 39.480469 40.964844 C 43.929688 43.378906 48.328125 45.984375 52.078125 48.210938 C 52.546875 48.507812 52.941406 48.875 53.265625 49.324219 C 53.585938 49.769531 53.816406 50.257812 53.949219 50.792969 C 54.085938 51.328125 54.117188 51.871094 54.042969 52.417969 C 53.96875 52.960938 53.796875 53.476562 53.527344 53.957031 C 52.949219 55.082031 52.054688 55.835938 50.847656 56.210938 C 50.46875 56.320312 50.085938 56.375 49.695312 56.371094 C 49.003906 56.378906 48.359375 56.207031 47.765625 55.863281 C 43.179688 53.367188 39.027344 50.949219 35.03125 48.480469 C 34.273438 47.945312 33.746094 47.238281 33.449219 46.359375 C 33.40625 46.253906 33.355469 46.15625 33.289062 46.0625 Z M 104.914062 24.265625 L 105.019531 24.265625 C 106.1875 24.296875 107.199219 23.914062 108.050781 23.113281 C 108.511719 22.636719 108.863281 22.085938 109.105469 21.46875 C 109.347656 20.847656 109.460938 20.207031 109.445312 19.542969 C 109.46875 17.984375 109.46875 16.429688 109.46875 14.871094 L 109.445312 11.839844 L 109.445312 10.820312 C 109.445312 9.261719 109.46875 7.703125 109.445312 6.148438 C 109.460938 5.84375 109.449219 5.542969 109.402344 5.246094 C 109.359375 4.945312 109.285156 4.65625 109.179688 4.371094 C 109.078125 4.085938 108.945312 3.816406 108.789062 3.558594 C 108.628906 3.300781 108.445312 3.0625 108.238281 2.84375 C 108.027344 2.621094 107.800781 2.425781 107.554688 2.253906 C 107.304688 2.082031 107.042969 1.933594 106.765625 1.816406 C 106.488281 1.695312 106.199219 1.605469 105.902344 1.546875 C 105.609375 1.484375 105.308594 1.457031 105.007812 1.457031 C 104.703125 1.457031 104.40625 1.488281 104.109375 1.550781 C 103.8125 1.613281 103.527344 1.707031 103.25 1.824219 C 102.972656 1.945312 102.710938 2.09375 102.464844 2.269531 C 102.21875 2.445312 101.992188 2.640625 101.785156 2.863281 C 101.578125 3.082031 101.394531 3.324219 101.238281 3.582031 C 101.082031 3.839844 100.953125 4.109375 100.847656 4.394531 C 100.746094 4.679688 100.675781 4.972656 100.632812 5.273438 C 100.589844 5.570312 100.578125 5.871094 100.597656 6.175781 C 100.570312 10.628906 100.542969 15.058594 100.570312 19.515625 C 100.542969 19.816406 100.546875 20.121094 100.582031 20.421875 C 100.613281 20.722656 100.679688 21.015625 100.777344 21.304688 C 100.875 21.59375 101 21.867188 101.152344 22.128906 C 101.304688 22.390625 101.484375 22.632812 101.691406 22.855469 C 101.894531 23.082031 102.121094 23.28125 102.367188 23.457031 C 102.613281 23.632812 102.875 23.78125 103.152344 23.902344 C 103.429688 24.027344 103.71875 24.117188 104.015625 24.179688 C 104.3125 24.238281 104.609375 24.269531 104.914062 24.265625 Z M 49.613281 111.484375 L 49.132812 111.535156 C 48.695312 111.5625 48.285156 111.679688 47.898438 111.886719 L 45.699219 113.148438 C 42.082031 115.214844 38.460938 117.28125 34.898438 119.429688 C 34.457031 119.730469 34.085938 120.105469 33.789062 120.550781 C 33.492188 120.996094 33.285156 121.480469 33.171875 122.007812 C 33.0625 122.53125 33.050781 123.058594 33.140625 123.585938 C 33.230469 124.113281 33.414062 124.609375 33.691406 125.066406 C 34.058594 125.773438 34.582031 126.335938 35.261719 126.753906 C 35.9375 127.171875 36.675781 127.390625 37.472656 127.402344 C 38.128906 127.410156 38.742188 127.257812 39.320312 126.945312 C 43.421875 124.691406 47.628906 122.273438 52.214844 119.507812 C 52.617188 119.257812 52.960938 118.941406 53.25 118.566406 C 53.542969 118.195312 53.761719 117.78125 53.90625 117.328125 C 54.050781 116.875 54.113281 116.414062 54.09375 115.9375 C 54.074219 115.464844 53.976562 115.007812 53.796875 114.570312 C 53.664062 114.117188 53.464844 113.699219 53.195312 113.316406 C 52.925781 112.929688 52.601562 112.597656 52.222656 112.320312 C 51.847656 112.042969 51.433594 111.832031 50.988281 111.6875 C 50.539062 111.542969 50.082031 111.476562 49.613281 111.484375 Z M 174.660156 119.050781 C 170.773438 116.796875 166.878906 114.550781 162.972656 112.316406 C 162.402344 111.953125 161.777344 111.714844 161.109375 111.609375 C 160.4375 111.5 159.773438 111.53125 159.113281 111.699219 C 157.960938 112.019531 157.105469 112.707031 156.542969 113.765625 C 156.398438 114.035156 156.28125 114.316406 156.195312 114.613281 C 156.105469 114.90625 156.050781 115.207031 156.023438 115.511719 C 155.996094 115.820312 156 116.125 156.035156 116.429688 C 156.070312 116.734375 156.136719 117.035156 156.230469 117.324219 C 156.324219 117.617188 156.449219 117.898438 156.601562 118.164062 C 156.75 118.433594 156.929688 118.679688 157.128906 118.914062 C 157.332031 119.144531 157.554688 119.351562 157.796875 119.539062 C 158.042969 119.726562 158.300781 119.886719 158.578125 120.019531 C 162.304688 122.195312 166.058594 124.367188 169.835938 126.542969 C 170.335938 126.804688 170.851562 127.019531 171.390625 127.1875 L 172.007812 127.402344 L 172.304688 127.402344 C 172.804688 127.417969 173.292969 127.351562 173.773438 127.203125 C 174.25 127.054688 174.691406 126.828125 175.09375 126.527344 C 175.496094 126.230469 175.835938 125.871094 176.117188 125.453125 C 176.398438 125.035156 176.601562 124.585938 176.726562 124.097656 C 176.871094 123.625 176.933594 123.136719 176.910156 122.640625 C 176.890625 122.144531 176.785156 121.667969 176.597656 121.207031 C 176.40625 120.746094 176.148438 120.332031 175.816406 119.960938 C 175.484375 119.589844 175.097656 119.289062 174.660156 119.050781 Z M 177.207031 44.992188 C 177.140625 44.148438 176.871094 43.371094 176.402344 42.667969 C 175.9375 41.960938 175.328125 41.410156 174.582031 41.019531 C 173.851562 40.660156 173.078125 40.496094 172.265625 40.53125 C 171.453125 40.566406 170.695312 40.789062 169.996094 41.207031 C 166.085938 43.40625 162.171875 45.6875 158.285156 47.996094 C 158.027344 48.136719 157.785156 48.304688 157.5625 48.492188 C 157.335938 48.679688 157.132812 48.890625 156.949219 49.117188 C 156.769531 49.347656 156.609375 49.59375 156.476562 49.851562 C 156.339844 50.113281 156.234375 50.386719 156.152344 50.667969 C 156.070312 50.949219 156.019531 51.238281 155.992188 51.527344 C 155.96875 51.820312 155.972656 52.113281 156.007812 52.40625 C 156.039062 52.695312 156.101562 52.980469 156.191406 53.261719 C 156.28125 53.539062 156.398438 53.808594 156.542969 54.0625 C 156.917969 54.765625 157.449219 55.320312 158.132812 55.726562 C 158.8125 56.136719 159.550781 56.34375 160.347656 56.34375 C 161.171875 56.335938 161.941406 56.121094 162.652344 55.703125 C 166.539062 53.527344 170.667969 51.164062 174.660156 48.722656 C 175.414062 48.1875 176.011719 47.515625 176.457031 46.707031 C 176.617188 46.441406 176.78125 46.199219 176.941406 45.957031 L 177.289062 45.527344 Z M 97.675781 33.742188 C 77.0625 36.964844 62.773438 48.777344 56.207031 68.558594 C 49.695312 88.316406 54.25 106.167969 68.617188 121.308594 C 72.21875 125.027344 75.015625 129.277344 77.007812 134.058594 C 80.464844 143.042969 82.207031 152.347656 82.234375 161.976562 C 82.195312 162.445312 82.207031 162.914062 82.273438 163.378906 C 82.335938 163.847656 82.453125 164.300781 82.617188 164.742188 C 82.78125 165.183594 82.992188 165.601562 83.25 165.996094 C 83.503906 166.390625 83.800781 166.75 84.140625 167.082031 C 84.476562 167.410156 84.84375 167.695312 85.246094 167.941406 C 85.648438 168.191406 86.070312 168.390625 86.515625 168.542969 C 86.960938 168.695312 87.414062 168.796875 87.882812 168.847656 C 88.351562 168.902344 88.820312 168.898438 89.285156 168.847656 L 120.675781 168.847656 C 125.257812 168.847656 127.457031 166.433594 127.859375 161.921875 C 128.269531 155.695312 129.027344 149.511719 130.136719 143.375 C 130.8125 139.269531 132.085938 135.363281 133.960938 131.652344 C 135.835938 127.945312 138.226562 124.601562 141.128906 121.628906 C 143.242188 119.582031 145.164062 117.367188 146.894531 114.984375 C 148.621094 112.601562 150.128906 110.085938 151.414062 107.4375 C 152.703125 104.789062 153.75 102.046875 154.554688 99.214844 C 155.363281 96.382812 155.917969 93.5 156.21875 90.570312 C 156.332031 89.597656 156.414062 88.617188 156.46875 87.636719 C 156.523438 86.65625 156.550781 85.675781 156.550781 84.695312 C 156.546875 83.710938 156.519531 82.730469 156.460938 81.75 C 156.40625 80.769531 156.320312 79.792969 156.207031 78.816406 C 156.09375 77.839844 155.953125 76.871094 155.785156 75.902344 C 155.617188 74.9375 155.421875 73.972656 155.199219 73.019531 C 154.976562 72.0625 154.726562 71.113281 154.449219 70.171875 C 154.171875 69.230469 153.867188 68.296875 153.535156 67.371094 C 153.207031 66.445312 152.847656 65.53125 152.464844 64.628906 C 152.082031 63.726562 151.675781 62.832031 151.242188 61.953125 C 150.808594 61.070312 150.351562 60.203125 149.867188 59.347656 C 149.382812 58.496094 148.875 57.65625 148.34375 56.828125 C 147.8125 56.003906 147.261719 55.195312 146.683594 54.402344 C 146.105469 53.605469 145.503906 52.832031 144.882812 52.070312 C 144.261719 51.3125 143.621094 50.570312 142.957031 49.847656 C 142.292969 49.125 141.609375 48.421875 140.902344 47.738281 C 140.199219 47.054688 139.476562 46.394531 138.734375 45.75 C 137.992188 45.109375 137.234375 44.488281 136.457031 43.890625 C 135.679688 43.292969 134.886719 42.714844 134.074219 42.164062 C 133.265625 41.609375 132.441406 41.078125 131.597656 40.574219 C 130.757812 40.066406 129.90625 39.585938 129.035156 39.128906 C 128.167969 38.671875 127.289062 38.242188 126.394531 37.835938 C 125.503906 37.425781 124.601562 37.046875 123.6875 36.691406 C 122.773438 36.335938 121.847656 36.007812 120.914062 35.707031 C 119.984375 35.402344 119.042969 35.128906 118.09375 34.878906 C 117.144531 34.632812 116.1875 34.410156 115.226562 34.21875 C 114.265625 34.023438 113.300781 33.859375 112.332031 33.71875 C 111.359375 33.582031 110.386719 33.472656 109.410156 33.390625 C 108.429688 33.304688 107.453125 33.25 106.472656 33.226562 C 105.492188 33.199219 104.511719 33.199219 103.53125 33.230469 C 102.550781 33.257812 101.574219 33.316406 100.597656 33.402344 C 99.621094 33.488281 98.648438 33.601562 97.675781 33.742188 Z M 118.101562 171.828125 L 92.289062 171.828125 C 91.566406 171.828125 90.847656 171.898438 90.140625 172.039062 C 89.429688 172.179688 88.742188 172.390625 88.070312 172.667969 C 87.402344 172.945312 86.769531 173.285156 86.167969 173.6875 C 85.566406 174.089844 85.007812 174.546875 84.496094 175.058594 C 83.988281 175.570312 83.53125 176.128906 83.128906 176.730469 C 82.726562 177.332031 82.386719 177.96875 82.109375 178.636719 C 81.832031 179.308594 81.625 179.996094 81.484375 180.707031 C 81.339844 181.417969 81.269531 182.136719 81.269531 182.859375 L 81.269531 198.859375 C 81.269531 199.582031 81.339844 200.300781 81.484375 201.011719 C 81.625 201.722656 81.832031 202.410156 82.109375 203.082031 C 82.386719 203.75 82.726562 204.386719 83.128906 204.988281 C 83.53125 205.589844 83.988281 206.148438 84.496094 206.660156 C 85.007812 207.171875 85.566406 207.628906 86.167969 208.03125 C 86.769531 208.433594 87.402344 208.773438 88.070312 209.050781 C 88.742188 209.328125 89.429688 209.539062 90.140625 209.679688 C 90.847656 209.820312 91.566406 209.890625 92.289062 209.890625 L 118.101562 209.890625 C 118.824219 209.890625 119.542969 209.820312 120.25 209.675781 C 120.960938 209.535156 121.648438 209.324219 122.316406 209.046875 C 122.984375 208.769531 123.617188 208.429688 124.21875 208.027344 C 124.820312 207.625 125.375 207.167969 125.886719 206.65625 C 126.398438 206.144531 126.855469 205.585938 127.257812 204.984375 C 127.660156 204.382812 128 203.746094 128.277344 203.078125 C 128.554688 202.410156 128.761719 201.71875 128.90625 201.011719 C 129.046875 200.300781 129.117188 199.582031 129.117188 198.859375 L 129.117188 182.859375 C 129.117188 182.136719 129.046875 181.417969 128.90625 180.710938 C 128.761719 180 128.554688 179.308594 128.277344 178.640625 C 128 177.972656 127.660156 177.335938 127.257812 176.734375 C 126.855469 176.132812 126.398438 175.574219 125.886719 175.0625 C 125.375 174.550781 124.820312 174.09375 124.21875 173.691406 C 123.617188 173.289062 122.984375 172.949219 122.316406 172.671875 C 121.648438 172.394531 120.960938 172.183594 120.25 172.042969 C 119.542969 171.898438 118.824219 171.828125 118.101562 171.828125 Z M 118.101562 171.828125 " fill-opacity="1" fill-rule="nonzero"/></g><path fill="#faa87f" d="M 121.613281 182.859375 L 121.613281 198.859375 C 121.613281 199.328125 121.527344 199.777344 121.347656 200.210938 C 121.171875 200.644531 120.917969 201.027344 120.589844 201.359375 C 120.261719 201.691406 119.878906 201.945312 119.449219 202.128906 C 119.019531 202.308594 118.570312 202.398438 118.101562 202.402344 L 92.289062 202.402344 C 91.820312 202.402344 91.367188 202.3125 90.933594 202.132812 C 90.5 201.953125 90.117188 201.699219 89.785156 201.367188 C 89.453125 201.035156 89.199219 200.648438 89.019531 200.214844 C 88.839844 199.78125 88.75 199.328125 88.75 198.859375 L 88.75 182.859375 C 88.75 182.390625 88.839844 181.9375 89.019531 181.503906 C 89.199219 181.070312 89.453125 180.6875 89.785156 180.355469 C 90.117188 180.023438 90.5 179.765625 90.933594 179.585938 C 91.367188 179.40625 91.820312 179.316406 92.289062 179.316406 L 118.101562 179.316406 C 118.570312 179.320312 119.019531 179.410156 119.449219 179.59375 C 119.878906 179.773438 120.261719 180.03125 120.589844 180.363281 C 120.917969 180.695312 121.171875 181.078125 121.347656 181.507812 C 121.527344 181.941406 121.613281 182.390625 121.613281 182.859375 Z M 121.613281 182.859375 " fill-opacity="1" fill-rule="nonzero"/><path fill="#ffcfb7" d="M 144.988281 101.335938 C 143.113281 106.25 140.320312 110.5625 136.597656 114.273438 C 132.832031 117.929688 129.707031 122.066406 127.21875 126.6875 C 124.730469 131.3125 122.996094 136.203125 122.015625 141.359375 C 120.863281 146.730469 120.40625 152.230469 119.65625 157.679688 C 119.523438 158.566406 119.523438 159.425781 119.441406 160.367188 L 90.679688 160.285156 C 90.332031 156.847656 90.117188 153.359375 89.632812 149.894531 C 89.128906 144.429688 87.910156 139.128906 85.984375 133.992188 C 84.054688 128.855469 81.484375 124.0625 78.269531 119.617188 C 77.0625 118.085938 75.695312 116.691406 74.382812 115.269531 C 62.050781 102.007812 58.40625 86.597656 64.679688 69.6875 C 70.925781 52.910156 83.683594 43.378906 101.507812 41.742188 C 133.542969 38.816406 157.210938 71.484375 144.988281 101.335938 Z M 144.988281 101.335938 " fill-opacity="1" fill-rule="nonzero"/><g clip-path="url(#4893e86e01)"><path fill="#ff7351" d="M 109.445312 11.839844 L 109.445312 10.820312 C 109.445312 9.261719 109.46875 7.703125 109.445312 6.148438 C 109.460938 5.84375 109.449219 5.542969 109.402344 5.246094 C 109.359375 4.945312 109.285156 4.65625 109.179688 4.371094 C 109.078125 4.085938 108.945312 3.816406 108.789062 3.558594 C 108.628906 3.300781 108.445312 3.0625 108.238281 2.84375 C 108.027344 2.621094 107.800781 2.425781 107.554688 2.253906 C 107.304688 2.082031 107.042969 1.933594 106.765625 1.816406 C 106.488281 1.695312 106.199219 1.605469 105.902344 1.546875 C 105.609375 1.484375 105.308594 1.457031 105.007812 1.457031 C 104.703125 1.457031 104.40625 1.488281 104.109375 1.550781 C 103.8125 1.613281 103.527344 1.707031 103.25 1.824219 C 102.972656 1.945312 102.710938 2.09375 102.464844 2.269531 C 102.21875 2.445312 101.992188 2.640625 101.785156 2.863281 C 101.578125 3.082031 101.394531 3.324219 101.238281 3.582031 C 101.082031 3.839844 100.953125 4.109375 100.847656 4.394531 C 100.746094 4.679688 100.675781 4.972656 100.632812 5.273438 C 100.589844 5.570312 100.578125 5.871094 100.597656 6.175781 C 100.570312 10.628906 100.542969 15.058594 100.570312 19.515625 C 100.542969 19.816406 100.546875 20.121094 100.582031 20.421875 C 100.613281 20.722656 100.679688 21.015625 100.777344 21.304688 C 100.875 21.59375 101 21.867188 101.152344 22.128906 C 101.304688 22.390625 101.484375 22.632812 101.691406 22.855469 C 101.894531 23.082031 102.121094 23.28125 102.367188 23.457031 C 102.613281 23.632812 102.875 23.78125 103.152344 23.902344 C 103.429688 24.027344 103.71875 24.117188 104.015625 24.179688 C 104.3125 24.238281 104.609375 24.269531 104.914062 24.265625 L 105.019531 24.265625 C 106.1875 24.296875 107.199219 23.914062 108.050781 23.113281 C 108.511719 22.636719 108.863281 22.085938 109.105469 21.46875 C 109.347656 20.847656 109.460938 20.207031 109.445312 19.542969 C 109.46875 17.984375 109.46875 16.429688 109.46875 14.871094 Z M 53.796875 114.570312 C 53.664062 114.117188 53.464844 113.699219 53.195312 113.316406 C 52.925781 112.929688 52.601562 112.597656 52.222656 112.320312 C 51.847656 112.042969 51.433594 111.832031 50.988281 111.6875 C 50.539062 111.542969 50.082031 111.476562 49.613281 111.484375 L 49.132812 111.535156 C 48.695312 111.5625 48.285156 111.679688 47.898438 111.886719 L 45.699219 113.148438 C 42.082031 115.214844 38.460938 117.28125 34.898438 119.429688 C 34.457031 119.730469 34.085938 120.105469 33.789062 120.550781 C 33.492188 120.996094 33.285156 121.480469 33.171875 122.007812 C 33.0625 122.53125 33.050781 123.058594 33.140625 123.585938 C 33.230469 124.113281 33.414062 124.609375 33.691406 125.066406 C 34.058594 125.773438 34.582031 126.335938 35.261719 126.753906 C 35.9375 127.171875 36.675781 127.390625 37.472656 127.402344 C 38.128906 127.410156 38.742188 127.257812 39.320312 126.945312 C 43.421875 124.691406 47.628906 122.273438 52.214844 119.507812 C 52.617188 119.257812 52.960938 118.941406 53.25 118.566406 C 53.542969 118.195312 53.761719 117.78125 53.90625 117.328125 C 54.050781 116.875 54.113281 116.414062 54.09375 115.9375 C 54.074219 115.464844 53.976562 115.007812 53.796875 114.570312 Z M 52.078125 48.210938 C 48.328125 45.984375 43.929688 43.378906 39.480469 40.964844 C 38.859375 40.613281 38.195312 40.441406 37.480469 40.445312 C 36.769531 40.449219 36.105469 40.632812 35.488281 40.992188 C 34.734375 41.457031 34.148438 42.074219 33.722656 42.851562 C 33.296875 43.625 33.089844 44.457031 33.101562 45.339844 L 33.101562 45.714844 L 33.289062 46.0625 C 33.355469 46.15625 33.40625 46.253906 33.449219 46.359375 C 33.746094 47.238281 34.273438 47.945312 35.03125 48.480469 C 39.027344 50.949219 43.179688 53.367188 47.765625 55.863281 C 48.359375 56.207031 49.003906 56.378906 49.695312 56.371094 C 50.085938 56.375 50.46875 56.320312 50.847656 56.210938 C 52.054688 55.835938 52.949219 55.082031 53.527344 53.957031 C 53.796875 53.476562 53.96875 52.960938 54.042969 52.417969 C 54.117188 51.871094 54.085938 51.328125 53.949219 50.792969 C 53.816406 50.257812 53.585938 49.769531 53.265625 49.324219 C 52.941406 48.875 52.546875 48.507812 52.078125 48.210938 Z M 177.207031 44.992188 C 177.140625 44.148438 176.871094 43.371094 176.402344 42.667969 C 175.9375 41.960938 175.328125 41.410156 174.582031 41.019531 C 173.851562 40.660156 173.078125 40.496094 172.265625 40.53125 C 171.453125 40.566406 170.695312 40.789062 169.996094 41.207031 C 166.085938 43.40625 162.171875 45.6875 158.285156 47.996094 C 158.027344 48.136719 157.785156 48.304688 157.5625 48.492188 C 157.335938 48.679688 157.132812 48.890625 156.949219 49.117188 C 156.769531 49.347656 156.609375 49.59375 156.476562 49.851562 C 156.339844 50.113281 156.234375 50.386719 156.152344 50.667969 C 156.070312 50.949219 156.019531 51.238281 155.992188 51.527344 C 155.96875 51.820312 155.972656 52.113281 156.007812 52.40625 C 156.039062 52.695312 156.101562 52.980469 156.191406 53.261719 C 156.28125 53.539062 156.398438 53.808594 156.542969 54.0625 C 156.917969 54.765625 157.449219 55.320312 158.132812 55.726562 C 158.8125 56.136719 159.550781 56.34375 160.347656 56.34375 C 161.171875 56.335938 161.941406 56.121094 162.652344 55.703125 C 166.539062 53.527344 170.667969 51.164062 174.660156 48.722656 C 175.414062 48.1875 176.011719 47.515625 176.457031 46.707031 C 176.617188 46.441406 176.78125 46.199219 176.941406 45.957031 L 177.289062 45.527344 Z M 174.660156 119.050781 C 170.773438 116.796875 166.878906 114.550781 162.972656 112.316406 C 162.402344 111.953125 161.777344 111.714844 161.109375 111.609375 C 160.4375 111.5 159.773438 111.53125 159.113281 111.699219 C 157.960938 112.019531 157.105469 112.707031 156.542969 113.765625 C 156.398438 114.035156 156.28125 114.316406 156.195312 114.613281 C 156.105469 114.90625 156.050781 115.207031 156.023438 115.511719 C 155.996094 115.820312 156 116.125 156.035156 116.429688 C 156.070312 116.734375 156.136719 117.035156 156.230469 117.324219 C 156.324219 117.617188 156.449219 117.898438 156.601562 118.164062 C 156.75 118.433594 156.929688 118.679688 157.128906 118.914062 C 157.332031 119.144531 157.554688 119.351562 157.796875 119.539062 C 158.042969 119.726562 158.300781 119.886719 158.578125 120.019531 C 162.304688 122.195312 166.058594 124.367188 169.835938 126.542969 C 170.335938 126.804688 170.851562 127.019531 171.390625 127.1875 L 172.007812 127.402344 L 172.304688 127.402344 C 172.804688 127.417969 173.292969 127.351562 173.773438 127.203125 C 174.25 127.054688 174.691406 126.828125 175.09375 126.527344 C 175.496094 126.230469 175.835938 125.871094 176.117188 125.453125 C 176.398438 125.035156 176.601562 124.585938 176.726562 124.097656 C 176.871094 123.625 176.933594 123.136719 176.910156 122.640625 C 176.890625 122.144531 176.785156 121.667969 176.597656 121.207031 C 176.40625 120.746094 176.148438 120.332031 175.816406 119.960938 C 175.484375 119.589844 175.097656 119.289062 174.660156 119.050781 Z M 118.101562 171.828125 L 92.289062 171.828125 C 91.566406 171.828125 90.847656 171.898438 90.140625 172.039062 C 89.429688 172.179688 88.742188 172.390625 88.070312 172.667969 C 87.402344 172.945312 86.769531 173.285156 86.167969 173.6875 C 85.566406 174.089844 85.007812 174.546875 84.496094 175.058594 C 83.988281 175.570312 83.53125 176.128906 83.128906 176.730469 C 82.726562 177.332031 82.386719 177.96875 82.109375 178.636719 C 81.832031 179.308594 81.625 179.996094 81.484375 180.707031 C 81.339844 181.417969 81.269531 182.136719 81.269531 182.859375 L 81.269531 198.859375 C 81.269531 199.582031 81.339844 200.300781 81.484375 201.011719 C 81.625 201.722656 81.832031 202.410156 82.109375 203.082031 C 82.386719 203.75 82.726562 204.386719 83.128906 204.988281 C 83.53125 205.589844 83.988281 206.148438 84.496094 206.660156 C 85.007812 207.171875 85.566406 207.628906 86.167969 208.03125 C 86.769531 208.433594 87.402344 208.773438 88.070312 209.050781 C 88.742188 209.328125 89.429688 209.539062 90.140625 209.679688 C 90.847656 209.820312 91.566406 209.890625 92.289062 209.890625 L 118.101562 209.890625 C 118.824219 209.890625 119.542969 209.820312 120.25 209.675781 C 120.960938 209.535156 121.648438 209.324219 122.316406 209.046875 C 122.984375 208.769531 123.617188 208.429688 124.21875 208.027344 C 124.820312 207.625 125.375 207.167969 125.886719 206.65625 C 126.398438 206.144531 126.855469 205.585938 127.257812 204.984375 C 127.660156 204.382812 128 203.746094 128.277344 203.078125 C 128.554688 202.410156 128.761719 201.71875 128.90625 201.011719 C 129.046875 200.300781 129.117188 199.582031 129.117188 198.859375 L 129.117188 182.859375 C 129.117188 182.136719 129.046875 181.417969 128.90625 180.710938 C 128.761719 180 128.554688 179.308594 128.277344 178.640625 C 128 177.972656 127.660156 177.335938 127.257812 176.734375 C 126.855469 176.132812 126.398438 175.574219 125.886719 175.0625 C 125.375 174.550781 124.820312 174.09375 124.21875 173.691406 C 123.617188 173.289062 122.984375 172.949219 122.316406 172.671875 C 121.648438 172.394531 120.960938 172.183594 120.25 172.042969 C 119.542969 171.898438 118.824219 171.828125 118.101562 171.828125 Z M 121.613281 198.859375 C 121.613281 199.328125 121.527344 199.777344 121.347656 200.210938 C 121.171875 200.644531 120.917969 201.027344 120.589844 201.359375 C 120.261719 201.691406 119.878906 201.945312 119.449219 202.128906 C 119.019531 202.308594 118.570312 202.398438 118.101562 202.402344 L 92.289062 202.402344 C 91.820312 202.402344 91.367188 202.3125 90.933594 202.132812 C 90.5 201.953125 90.117188 201.699219 89.785156 201.367188 C 89.453125 201.035156 89.199219 200.648438 89.019531 200.214844 C 88.839844 199.78125 88.75 199.328125 88.75 198.859375 L 88.75 182.859375 C 88.75 182.390625 88.839844 181.9375 89.019531 181.503906 C 89.199219 181.070312 89.453125 180.6875 89.785156 180.355469 C 90.117188 180.023438 90.5 179.765625 90.933594 179.585938 C 91.367188 179.40625 91.820312 179.316406 92.289062 179.316406 L 118.101562 179.316406 C 118.570312 179.320312 119.019531 179.410156 119.449219 179.59375 C 119.878906 179.773438 120.261719 180.03125 120.589844 180.363281 C 120.917969 180.695312 121.171875 181.078125 121.347656 181.507812 C 121.527344 181.941406 121.613281 182.390625 121.613281 182.859375 Z M 97.675781 33.742188 C 77.0625 36.964844 62.773438 48.777344 56.207031 68.558594 C 49.695312 88.316406 54.25 106.167969 68.617188 121.308594 C 72.21875 125.027344 75.015625 129.277344 77.007812 134.058594 C 80.464844 143.042969 82.207031 152.347656 82.234375 161.976562 C 82.195312 162.445312 82.207031 162.914062 82.273438 163.378906 C 82.335938 163.847656 82.453125 164.300781 82.617188 164.742188 C 82.78125 165.183594 82.992188 165.601562 83.25 165.996094 C 83.503906 166.390625 83.800781 166.75 84.140625 167.082031 C 84.476562 167.410156 84.84375 167.695312 85.246094 167.941406 C 85.648438 168.191406 86.070312 168.390625 86.515625 168.542969 C 86.960938 168.695312 87.414062 168.796875 87.882812 168.847656 C 88.351562 168.902344 88.820312 168.898438 89.285156 168.847656 L 120.675781 168.847656 C 125.257812 168.847656 127.457031 166.433594 127.859375 161.921875 C 128.269531 155.695312 129.027344 149.511719 130.136719 143.375 C 130.8125 139.269531 132.085938 135.363281 133.960938 131.652344 C 135.835938 127.945312 138.226562 124.601562 141.128906 121.628906 C 143.242188 119.582031 145.164062 117.367188 146.894531 114.984375 C 148.621094 112.601562 150.128906 110.085938 151.414062 107.4375 C 152.703125 104.789062 153.75 102.046875 154.554688 99.214844 C 155.363281 96.382812 155.917969 93.5 156.21875 90.570312 C 156.332031 89.597656 156.414062 88.617188 156.46875 87.636719 C 156.523438 86.65625 156.550781 85.675781 156.550781 84.695312 C 156.546875 83.710938 156.519531 82.730469 156.460938 81.75 C 156.40625 80.769531 156.320312 79.792969 156.207031 78.816406 C 156.09375 77.839844 155.953125 76.871094 155.785156 75.902344 C 155.617188 74.9375 155.421875 73.972656 155.199219 73.019531 C 154.976562 72.0625 154.726562 71.113281 154.449219 70.171875 C 154.171875 69.230469 153.867188 68.296875 153.535156 67.371094 C 153.207031 66.445312 152.847656 65.53125 152.464844 64.628906 C 152.082031 63.726562 151.675781 62.832031 151.242188 61.953125 C 150.808594 61.070312 150.351562 60.203125 149.867188 59.347656 C 149.382812 58.496094 148.875 57.65625 148.34375 56.828125 C 147.8125 56.003906 147.261719 55.195312 146.683594 54.402344 C 146.105469 53.605469 145.503906 52.832031 144.882812 52.070312 C 144.261719 51.3125 143.621094 50.570312 142.957031 49.847656 C 142.292969 49.125 141.609375 48.421875 140.902344 47.738281 C 140.199219 47.054688 139.476562 46.394531 138.734375 45.75 C 137.992188 45.109375 137.234375 44.488281 136.457031 43.890625 C 135.679688 43.292969 134.886719 42.714844 134.074219 42.164062 C 133.265625 41.609375 132.441406 41.078125 131.597656 40.574219 C 130.757812 40.066406 129.90625 39.585938 129.035156 39.128906 C 128.167969 38.671875 127.289062 38.242188 126.394531 37.835938 C 125.503906 37.425781 124.601562 37.046875 123.6875 36.691406 C 122.773438 36.335938 121.847656 36.007812 120.914062 35.707031 C 119.984375 35.402344 119.042969 35.128906 118.09375 34.878906 C 117.144531 34.632812 116.1875 34.410156 115.226562 34.21875 C 114.265625 34.023438 113.300781 33.859375 112.332031 33.71875 C 111.359375 33.582031 110.386719 33.472656 109.410156 33.390625 C 108.429688 33.304688 107.453125 33.25 106.472656 33.226562 C 105.492188 33.199219 104.511719 33.199219 103.53125 33.230469 C 102.550781 33.257812 101.574219 33.316406 100.597656 33.402344 C 99.621094 33.488281 98.648438 33.601562 97.675781 33.742188 Z M 144.988281 101.335938 C 143.113281 106.25 140.320312 110.5625 136.597656 114.273438 C 132.832031 117.929688 129.707031 122.066406 127.21875 126.6875 C 124.730469 131.3125 122.996094 136.203125 122.015625 141.359375 C 120.863281 146.730469 120.40625 152.230469 119.65625 157.679688 C 119.523438 158.566406 119.523438 159.425781 119.441406 160.367188 L 90.679688 160.285156 C 90.332031 156.847656 90.117188 153.359375 89.632812 149.894531 C 89.128906 144.429688 87.910156 139.128906 85.984375 133.992188 C 84.054688 128.855469 81.484375 124.0625 78.269531 119.617188 C 77.0625 118.085938 75.695312 116.691406 74.382812 115.269531 C 62.050781 102.007812 58.40625 86.597656 64.679688 69.6875 C 70.925781 52.910156 83.683594 43.378906 101.507812 41.742188 C 133.542969 38.816406 157.210938 71.484375 144.988281 101.335938 Z M 144.988281 101.335938 " fill-opacity="1" fill-rule="nonzero"/></g></svg>