<svg xmlns="http://www.w3.org/2000/svg" xmlns:xlink="http://www.w3.org/1999/xlink" width="280" zoomAndPan="magnify" viewBox="0 0 210 209.999996" height="280" preserveAspectRatio="xMidYMid meet" version="1.0"><defs><clipPath id="ffd433caf1"><path d="M 12.21875 0 L 197.46875 0 L 197.46875 210 L 12.21875 210 Z M 12.21875 0 " clip-rule="nonzero"/></clipPath></defs><g clip-path="url(#ffd433caf1)"><path fill="#ff7351" d="M 196.132812 179.425781 C 196.039062 179.214844 195.933594 179.015625 195.808594 178.828125 L 188.582031 168.164062 C 188.511719 168.078125 188.449219 167.988281 188.394531 167.890625 L 187.144531 166.042969 C 187.117188 165.988281 187.035156 165.933594 187.007812 165.878906 C 185.839844 164.191406 184.699219 162.503906 183.449219 160.738281 C 181.441406 157.800781 180.355469 156.277344 180.191406 156.03125 C 179.132812 154.398438 178.101562 152.710938 176.90625 150.726562 C 176.722656 150.414062 176.652344 150.078125 176.6875 149.71875 C 177.773438 146.0625 178.382812 142.324219 178.511719 138.507812 C 178.640625 134.691406 178.285156 130.921875 177.449219 127.195312 L 177.476562 126.871094 C 176.828125 124.605469 175.976562 122.421875 174.921875 120.316406 C 174.472656 119.390625 173.976562 118.492188 173.429688 117.621094 C 173.183594 117.214844 172.96875 116.832031 172.75 116.453125 L 167.238281 106.851562 C 165.90625 104.457031 164.574219 102.089844 163.246094 99.695312 C 162.917969 99.070312 162.566406 98.417969 162.242188 97.765625 L 162.023438 97.328125 C 161.726562 96.550781 161.339844 95.824219 160.863281 95.148438 C 160.382812 94.46875 159.824219 93.863281 159.191406 93.328125 C 158.554688 92.792969 157.863281 92.34375 157.117188 91.984375 C 156.367188 91.625 155.585938 91.367188 154.773438 91.207031 L 154.5 91.152344 C 153.609375 90.9375 152.703125 90.847656 151.785156 90.882812 C 151.730469 90.390625 151.675781 89.902344 151.621094 89.386719 C 151.40625 86.691406 151.1875 83.972656 150.941406 81.253906 L 150.183594 70.207031 C 150.15625 69.773438 150.128906 69.339844 150.101562 68.847656 C 150.0625 67.820312 149.972656 66.792969 149.828125 65.773438 C 149.546875 63.441406 149.039062 61.15625 148.308594 58.917969 L 148.089844 58.675781 C 146.707031 55.113281 144.902344 51.78125 142.671875 48.679688 C 140.4375 45.582031 137.855469 42.808594 134.921875 40.367188 C 134.6875 40.09375 134.5625 39.773438 134.539062 39.414062 C 134.429688 37.105469 134.351562 35.117188 134.296875 33.1875 C 134.296875 32.886719 134.351562 31.011719 134.402344 27.472656 C 134.429688 25.296875 134.457031 23.257812 134.484375 21.21875 C 134.484375 21.136719 134.511719 21.082031 134.511719 21 L 134.511719 12.160156 L 134.539062 5.222656 C 134.539062 4.992188 134.511719 4.765625 134.457031 4.542969 C 134.5 4.265625 134.511719 3.984375 134.496094 3.703125 C 134.476562 3.425781 134.429688 3.148438 134.351562 2.878906 C 134.273438 2.609375 134.164062 2.351562 134.03125 2.105469 C 133.894531 1.859375 133.734375 1.628906 133.550781 1.417969 C 133.363281 1.207031 133.160156 1.015625 132.933594 0.851562 C 132.707031 0.683594 132.464844 0.546875 132.207031 0.433594 C 131.949219 0.320312 131.683594 0.234375 131.410156 0.179688 C 131.132812 0.125 130.855469 0.101562 130.574219 0.109375 L 92.308594 0 L 92.175781 0 C 91.90625 0 91.644531 0.0234375 91.382812 0.0742188 C 91.121094 0.121094 90.867188 0.199219 90.621094 0.296875 C 90.371094 0.398438 90.136719 0.519531 89.914062 0.667969 C 89.691406 0.8125 89.484375 0.980469 89.296875 1.167969 C 89.105469 1.351562 88.933594 1.554688 88.785156 1.777344 C 88.632812 1.996094 88.507812 2.230469 88.402344 2.476562 C 88.296875 2.71875 88.21875 2.972656 88.160156 3.234375 C 88.105469 3.496094 88.078125 3.757812 88.074219 4.027344 C 88.046875 13.328125 88.019531 39.714844 88.019531 40.476562 C 88.0625 40.773438 88.023438 41.054688 87.90625 41.332031 C 87.789062 41.605469 87.609375 41.828125 87.367188 42 C 84.097656 45.464844 81.175781 49.203125 78.59375 53.207031 C 77.195312 55.507812 76.109375 57.945312 75.335938 60.523438 C 74.277344 64.308594 73.960938 68.152344 74.386719 72.058594 C 74.578125 74.617188 74.46875 77.5 74.359375 81.441406 C 74.332031 82.777344 74.277344 84.246094 74.25 85.851562 C 71.671875 89.386719 69.28125 92.894531 67.867188 94.988281 C 67.253906 94.28125 66.566406 93.65625 65.804688 93.113281 C 64.402344 92.136719 62.859375 91.484375 61.179688 91.15625 C 59.503906 90.828125 57.832031 90.855469 56.164062 91.234375 L 55.890625 91.289062 C 55.074219 91.441406 54.289062 91.695312 53.539062 92.050781 C 52.785156 92.40625 52.09375 92.851562 51.457031 93.390625 C 50.820312 93.925781 50.265625 94.535156 49.789062 95.214844 C 49.3125 95.898438 48.929688 96.628906 48.640625 97.410156 L 48.421875 97.847656 C 48.097656 98.5 47.746094 99.125 47.417969 99.777344 C 46.089844 102.171875 44.757812 104.539062 43.453125 106.929688 L 37.941406 116.535156 C 37.722656 116.914062 37.507812 117.296875 37.261719 117.703125 C 36.714844 118.574219 36.21875 119.472656 35.769531 120.394531 C 34.722656 122.515625 33.871094 124.707031 33.214844 126.980469 L 33.269531 127.277344 C 32.433594 131.003906 32.078125 134.773438 32.207031 138.589844 C 32.335938 142.40625 32.945312 146.140625 34.03125 149.800781 C 34.078125 150.160156 34.015625 150.492188 33.839844 150.808594 C 32.644531 152.792969 31.585938 154.507812 30.554688 156.140625 C 30.390625 156.382812 29.304688 157.90625 27.296875 160.847656 C 26.074219 162.613281 24.90625 164.300781 23.765625 165.988281 L 23.601562 166.148438 L 22.351562 168 C 22.304688 168.101562 22.242188 168.191406 22.164062 168.273438 L 22.191406 168.273438 L 13.554688 181.003906 C 13.445312 181.191406 13.335938 181.382812 13.226562 181.601562 C 13.039062 181.808594 12.875 182.035156 12.738281 182.277344 C 12.597656 182.519531 12.484375 182.777344 12.402344 183.042969 C 12.320312 183.3125 12.265625 183.585938 12.242188 183.863281 C 12.214844 184.144531 12.222656 184.421875 12.257812 184.703125 C 12.292969 184.980469 12.359375 185.25 12.453125 185.515625 C 12.550781 185.777344 12.671875 186.027344 12.820312 186.265625 C 12.96875 186.503906 13.144531 186.722656 13.339844 186.921875 C 13.539062 187.121094 13.753906 187.296875 13.988281 187.449219 L 45.789062 208.75 C 45.804688 208.765625 45.824219 208.773438 45.84375 208.777344 L 45.898438 208.832031 C 46.121094 208.980469 46.355469 209.105469 46.601562 209.207031 C 46.847656 209.3125 47.101562 209.386719 47.363281 209.441406 C 47.625 209.492188 47.890625 209.519531 48.160156 209.519531 C 48.425781 209.519531 48.691406 209.496094 48.953125 209.445312 C 49.214844 209.390625 49.46875 209.316406 49.71875 209.210938 C 49.964844 209.109375 50.199219 208.984375 50.421875 208.835938 C 50.644531 208.6875 50.851562 208.519531 51.039062 208.332031 C 51.230469 208.144531 51.398438 207.9375 51.546875 207.714844 C 56.734375 200.015625 72.703125 176.351562 73.109375 175.699219 C 73.242188 175.433594 73.433594 175.226562 73.679688 175.070312 C 73.929688 174.914062 74.199219 174.832031 74.496094 174.828125 C 79.136719 173.738281 83.644531 172.242188 88.019531 170.339844 C 90.480469 169.21875 92.742188 167.785156 94.808594 166.042969 C 97.800781 163.492188 100.199219 160.476562 102.003906 156.984375 C 102.902344 155.433594 104.015625 153.800781 105.371094 151.867188 C 106.730469 153.800781 107.84375 155.433594 108.742188 156.984375 C 110.246094 159.9375 112.199219 162.554688 114.597656 164.84375 C 116.996094 167.128906 119.707031 168.953125 122.726562 170.3125 C 127.097656 172.214844 131.605469 173.703125 136.25 174.773438 C 136.550781 174.785156 136.824219 174.871094 137.078125 175.03125 C 137.332031 175.191406 137.523438 175.40625 137.664062 175.671875 C 138.070312 176.296875 152.679688 197.894531 157.867188 205.59375 C 158.019531 205.8125 158.1875 206.019531 158.378906 206.207031 C 158.570312 206.394531 158.773438 206.5625 159 206.707031 C 159.222656 206.855469 159.457031 206.980469 159.703125 207.078125 C 159.949219 207.179688 160.207031 207.257812 160.46875 207.304688 C 160.730469 207.355469 160.996094 207.382812 161.261719 207.378906 C 161.527344 207.378906 161.792969 207.351562 162.054688 207.296875 C 162.316406 207.242188 162.570312 207.164062 162.816406 207.0625 C 163.0625 206.957031 163.296875 206.832031 163.515625 206.679688 C 163.542969 206.679688 163.542969 206.652344 163.570312 206.652344 L 163.625 206.601562 L 195.398438 185.273438 C 195.636719 185.121094 195.851562 184.945312 196.046875 184.746094 C 196.246094 184.546875 196.417969 184.328125 196.570312 184.089844 C 196.71875 183.851562 196.839844 183.601562 196.933594 183.335938 C 197.027344 183.070312 197.09375 182.800781 197.128906 182.519531 C 197.164062 182.242188 197.167969 181.960938 197.140625 181.683594 C 197.113281 181.402344 197.058594 181.128906 196.972656 180.863281 C 196.886719 180.59375 196.773438 180.339844 196.632812 180.097656 C 196.488281 179.855469 196.324219 179.628906 196.132812 179.425781 Z M 105.34375 137.777344 C 104.800781 136.960938 104.230469 136.144531 103.660156 135.332031 C 104.125 135.03125 104.53125 134.757812 104.855469 134.515625 C 105.320312 135.136719 105.84375 135.699219 106.433594 136.199219 C 106.078125 136.71875 105.726562 137.261719 105.34375 137.777344 Z M 105.34375 137.777344 " fill-opacity="1" fill-rule="nonzero"/><path fill="#ff7351" d="M 196.132812 179.425781 C 196.039062 179.214844 195.933594 179.015625 195.808594 178.828125 L 188.582031 168.164062 C 188.511719 168.078125 188.449219 167.988281 188.394531 167.890625 L 187.144531 166.042969 C 187.117188 165.988281 187.035156 165.933594 187.007812 165.878906 C 185.839844 164.191406 184.699219 162.503906 183.449219 160.738281 C 181.441406 157.800781 180.355469 156.277344 180.191406 156.03125 C 179.132812 154.398438 178.101562 152.710938 176.90625 150.726562 C 176.722656 150.414062 176.652344 150.078125 176.6875 149.71875 C 177.773438 146.0625 178.382812 142.324219 178.511719 138.507812 C 178.640625 134.691406 178.285156 130.921875 177.449219 127.195312 L 177.476562 126.871094 C 176.828125 124.605469 175.976562 122.421875 174.921875 120.316406 C 174.472656 119.390625 173.976562 118.492188 173.429688 117.621094 C 173.183594 117.214844 172.96875 116.832031 172.75 116.453125 L 167.238281 106.851562 C 165.90625 104.457031 164.574219 102.089844 163.246094 99.695312 C 162.917969 99.070312 162.566406 98.417969 162.242188 97.765625 L 162.023438 97.328125 C 161.726562 96.550781 161.339844 95.824219 160.863281 95.148438 C 160.382812 94.46875 159.824219 93.863281 159.191406 93.328125 C 158.554688 92.792969 157.863281 92.34375 157.117188 91.984375 C 156.367188 91.625 155.585938 91.367188 154.773438 91.207031 L 154.5 91.152344 C 153.609375 90.9375 152.703125 90.847656 151.785156 90.882812 C 151.730469 90.390625 151.675781 89.902344 151.621094 89.386719 C 151.40625 86.691406 151.1875 83.972656 150.941406 81.253906 L 150.183594 70.207031 C 150.15625 69.773438 150.128906 69.339844 150.101562 68.847656 C 150.0625 67.820312 149.972656 66.792969 149.828125 65.773438 C 149.546875 63.441406 149.039062 61.15625 148.308594 58.917969 L 148.089844 58.675781 C 146.707031 55.113281 144.902344 51.78125 142.671875 48.679688 C 140.4375 45.582031 137.855469 42.808594 134.921875 40.367188 C 134.6875 40.09375 134.5625 39.773438 134.539062 39.414062 C 134.429688 37.105469 134.351562 35.117188 134.296875 33.1875 C 134.296875 32.886719 134.351562 31.011719 134.402344 27.472656 C 134.429688 25.296875 134.457031 23.257812 134.484375 21.21875 C 134.484375 21.136719 134.511719 21.082031 134.511719 21 L 134.511719 12.160156 L 134.539062 5.222656 C 134.539062 4.992188 134.511719 4.765625 134.457031 4.542969 C 134.5 4.265625 134.511719 3.984375 134.496094 3.703125 C 134.476562 3.425781 134.429688 3.148438 134.351562 2.878906 C 134.273438 2.609375 134.164062 2.351562 134.03125 2.105469 C 133.894531 1.859375 133.734375 1.628906 133.550781 1.417969 C 133.363281 1.207031 133.160156 1.015625 132.933594 0.851562 C 132.707031 0.683594 132.464844 0.546875 132.207031 0.433594 C 131.949219 0.320312 131.683594 0.234375 131.410156 0.179688 C 131.132812 0.125 130.855469 0.101562 130.574219 0.109375 L 92.308594 0 L 92.175781 0 C 91.90625 0 91.644531 0.0234375 91.382812 0.0742188 C 91.121094 0.121094 90.867188 0.199219 90.621094 0.296875 C 90.371094 0.398438 90.136719 0.519531 89.914062 0.667969 C 89.691406 0.8125 89.484375 0.980469 89.296875 1.167969 C 89.105469 1.351562 88.933594 1.554688 88.785156 1.777344 C 88.632812 1.996094 88.507812 2.230469 88.402344 2.476562 C 88.296875 2.71875 88.21875 2.972656 88.160156 3.234375 C 88.105469 3.496094 88.078125 3.757812 88.074219 4.027344 C 88.046875 13.328125 88.019531 39.714844 88.019531 40.476562 C 88.0625 40.773438 88.023438 41.054688 87.90625 41.332031 C 87.789062 41.605469 87.609375 41.828125 87.367188 42 C 84.097656 45.464844 81.175781 49.203125 78.59375 53.207031 C 77.195312 55.507812 76.109375 57.945312 75.335938 60.523438 C 74.277344 64.308594 73.960938 68.152344 74.386719 72.058594 C 74.578125 74.617188 74.46875 77.5 74.359375 81.441406 C 74.332031 82.777344 74.277344 84.246094 74.25 85.851562 C 71.671875 89.386719 69.28125 92.894531 67.867188 94.988281 C 67.253906 94.28125 66.566406 93.65625 65.804688 93.113281 C 64.402344 92.136719 62.859375 91.484375 61.179688 91.15625 C 59.503906 90.828125 57.832031 90.855469 56.164062 91.234375 L 55.890625 91.289062 C 55.074219 91.441406 54.289062 91.695312 53.539062 92.050781 C 52.785156 92.40625 52.09375 92.851562 51.457031 93.390625 C 50.820312 93.925781 50.265625 94.535156 49.789062 95.214844 C 49.3125 95.898438 48.929688 96.628906 48.640625 97.410156 L 48.421875 97.847656 C 48.097656 98.5 47.746094 99.125 47.417969 99.777344 C 46.089844 102.171875 44.757812 104.539062 43.453125 106.929688 L 37.941406 116.535156 C 37.722656 116.914062 37.507812 117.296875 37.261719 117.703125 C 36.714844 118.574219 36.21875 119.472656 35.769531 120.394531 C 34.722656 122.515625 33.871094 124.707031 33.214844 126.980469 L 33.269531 127.277344 C 32.433594 131.003906 32.078125 134.773438 32.207031 138.589844 C 32.335938 142.40625 32.945312 146.140625 34.03125 149.800781 C 34.078125 150.160156 34.015625 150.492188 33.839844 150.808594 C 32.644531 152.792969 31.585938 154.507812 30.554688 156.140625 C 30.390625 156.382812 29.304688 157.90625 27.296875 160.847656 C 26.074219 162.613281 24.90625 164.300781 23.765625 165.988281 L 23.601562 166.148438 L 22.351562 168 C 22.304688 168.101562 22.242188 168.191406 22.164062 168.273438 L 22.191406 168.273438 L 13.554688 181.003906 C 13.445312 181.191406 13.335938 181.382812 13.226562 181.601562 C 13.039062 181.808594 12.875 182.035156 12.738281 182.277344 C 12.597656 182.519531 12.484375 182.777344 12.402344 183.042969 C 12.320312 183.3125 12.265625 183.585938 12.242188 183.863281 C 12.214844 184.144531 12.222656 184.421875 12.257812 184.703125 C 12.292969 184.980469 12.359375 185.25 12.453125 185.515625 C 12.550781 185.777344 12.671875 186.027344 12.820312 186.265625 C 12.96875 186.503906 13.144531 186.722656 13.339844 186.921875 C 13.539062 187.121094 13.753906 187.296875 13.988281 187.449219 L 45.789062 208.75 C 45.804688 208.765625 45.824219 208.773438 45.84375 208.777344 L 45.898438 208.832031 C 46.121094 208.980469 46.355469 209.105469 46.601562 209.207031 C 46.847656 209.3125 47.101562 209.386719 47.363281 209.441406 C 47.625 209.492188 47.890625 209.519531 48.160156 209.519531 C 48.425781 209.519531 48.691406 209.496094 48.953125 209.445312 C 49.214844 209.390625 49.46875 209.316406 49.71875 209.210938 C 49.964844 209.109375 50.199219 208.984375 50.421875 208.835938 C 50.644531 208.6875 50.851562 208.519531 51.039062 208.332031 C 51.230469 208.144531 51.398438 207.9375 51.546875 207.714844 C 56.734375 200.015625 72.703125 176.351562 73.109375 175.699219 C 73.242188 175.433594 73.433594 175.226562 73.679688 175.070312 C 73.929688 174.914062 74.199219 174.832031 74.496094 174.828125 C 79.136719 173.738281 83.644531 172.242188 88.019531 170.339844 C 90.480469 169.21875 92.742188 167.785156 94.808594 166.042969 C 97.800781 163.492188 100.199219 160.476562 102.003906 156.984375 C 102.902344 155.433594 104.015625 153.800781 105.371094 151.867188 C 106.730469 153.800781 107.84375 155.433594 108.742188 156.984375 C 110.246094 159.9375 112.199219 162.554688 114.597656 164.84375 C 116.996094 167.128906 119.707031 168.953125 122.726562 170.3125 C 127.097656 172.214844 131.605469 173.703125 136.25 174.773438 C 136.550781 174.785156 136.824219 174.871094 137.078125 175.03125 C 137.332031 175.191406 137.523438 175.40625 137.664062 175.671875 C 138.070312 176.296875 152.679688 197.894531 157.867188 205.59375 C 158.019531 205.8125 158.1875 206.019531 158.378906 206.207031 C 158.570312 206.394531 158.773438 206.5625 159 206.707031 C 159.222656 206.855469 159.457031 206.980469 159.703125 207.078125 C 159.949219 207.179688 160.207031 207.257812 160.46875 207.304688 C 160.730469 207.355469 160.996094 207.382812 161.261719 207.378906 C 161.527344 207.378906 161.792969 207.351562 162.054688 207.296875 C 162.316406 207.242188 162.570312 207.164062 162.816406 207.0625 C 163.0625 206.957031 163.296875 206.832031 163.515625 206.679688 C 163.542969 206.679688 163.542969 206.652344 163.570312 206.652344 L 163.625 206.601562 L 195.398438 185.273438 C 195.636719 185.121094 195.851562 184.945312 196.046875 184.746094 C 196.246094 184.546875 196.417969 184.328125 196.570312 184.089844 C 196.71875 183.851562 196.839844 183.601562 196.933594 183.335938 C 197.027344 183.070312 197.09375 182.800781 197.128906 182.519531 C 197.164062 182.242188 197.167969 181.960938 197.140625 181.683594 C 197.113281 181.402344 197.058594 181.128906 196.972656 180.863281 C 196.886719 180.59375 196.773438 180.339844 196.632812 180.097656 C 196.488281 179.855469 196.324219 179.628906 196.132812 179.425781 Z M 94.808594 153.175781 C 93.550781 155.148438 92.082031 156.953125 90.402344 158.582031 C 88.71875 160.210938 86.875 161.625 84.863281 162.820312 C 82.851562 164.015625 80.726562 164.960938 78.496094 165.65625 C 76.261719 166.351562 73.976562 166.78125 71.644531 166.9375 C 70.800781 166.976562 70.019531 167.210938 69.296875 167.648438 C 68.574219 168.082031 68 168.660156 67.570312 169.386719 C 67.082031 170.148438 53.039062 190.929688 47.039062 199.855469 L 21.945312 183.042969 L 30.335938 170.664062 C 30.378906 170.597656 30.414062 170.523438 30.445312 170.449219 C 35.523438 162.914062 41.171875 154.5625 41.5 154.125 C 42.070312 153.40625 42.429688 152.589844 42.582031 151.679688 C 42.730469 150.769531 42.648438 149.882812 42.339844 149.011719 C 41.152344 145.695312 40.484375 142.277344 40.339844 138.753906 C 40.195312 135.234375 40.582031 131.769531 41.5 128.367188 C 42 126.546875 42.695312 124.804688 43.589844 123.144531 C 45.953125 118.871094 48.316406 114.601562 50.730469 110.386719 L 56.082031 100.972656 C 56.539062 100.179688 57.171875 99.574219 57.984375 99.152344 C 58.238281 99.027344 58.507812 98.949219 58.789062 98.914062 C 59.070312 98.878906 59.351562 98.890625 59.628906 98.949219 C 59.90625 99.011719 60.167969 99.113281 60.410156 99.257812 C 60.65625 99.40625 60.867188 99.585938 61.050781 99.804688 C 61.269531 99.996094 61.449219 100.21875 61.597656 100.46875 C 61.746094 100.71875 61.847656 100.988281 61.910156 101.269531 C 61.96875 101.554688 61.984375 101.839844 61.953125 102.128906 C 61.925781 102.417969 61.851562 102.695312 61.730469 102.960938 C 61.378906 103.882812 60.96875 104.78125 60.5625 105.679688 L 60.046875 106.796875 C 59.742188 107.367188 59.566406 107.972656 59.523438 108.617188 C 59.484375 109.265625 59.574219 109.890625 59.800781 110.496094 C 60.128906 111.355469 60.691406 112.015625 61.488281 112.480469 C 61.730469 112.621094 61.984375 112.734375 62.253906 112.820312 C 62.519531 112.90625 62.792969 112.96875 63.070312 113 C 63.347656 113.03125 63.628906 113.035156 63.90625 113.011719 C 64.1875 112.984375 64.460938 112.933594 64.730469 112.855469 C 65 112.773438 65.257812 112.667969 65.503906 112.535156 C 65.753906 112.402344 65.984375 112.246094 66.199219 112.066406 C 66.414062 111.886719 66.613281 111.6875 66.789062 111.46875 C 66.964844 111.25 67.117188 111.015625 67.242188 110.765625 L 67.433594 110.46875 C 69.632812 107.285156 71.832031 104.074219 74.007812 100.890625 C 73.925781 106.902344 73.851562 112.933594 73.789062 118.980469 C 73.761719 119.847656 73.839844 120.699219 74.015625 121.546875 C 74.195312 122.390625 74.46875 123.203125 74.839844 123.984375 C 75.210938 124.765625 75.667969 125.492188 76.210938 126.164062 C 76.753906 126.835938 77.367188 127.433594 78.050781 127.957031 C 78.746094 128.472656 79.488281 128.898438 80.277344 129.238281 C 81.070312 129.578125 81.890625 129.824219 82.738281 129.972656 C 83.585938 130.121094 84.441406 130.171875 85.300781 130.121094 C 86.160156 130.070312 87.003906 129.917969 87.828125 129.671875 L 87.855469 129.671875 C 88.125 130.457031 88.476562 131.203125 88.910156 131.90625 C 89.347656 132.613281 89.859375 133.261719 90.441406 133.851562 C 91.023438 134.4375 91.667969 134.953125 92.367188 135.398438 C 93.066406 135.839844 93.808594 136.199219 94.589844 136.472656 L 97.714844 141.042969 C 98.71875 142.457031 99.617188 143.734375 100.457031 144.933594 C 98.554688 147.679688 96.695312 150.425781 94.808594 153.175781 Z M 105.34375 137.777344 C 104.800781 136.960938 104.230469 136.144531 103.660156 135.332031 C 104.125 135.03125 104.53125 134.757812 104.855469 134.515625 C 105.320312 135.136719 105.84375 135.699219 106.433594 136.199219 C 106.078125 136.71875 105.726562 137.261719 105.34375 137.777344 Z M 109.746094 120.207031 L 109.773438 118.410156 C 109.828125 113.214844 109.746094 109.894531 109.664062 106.6875 C 109.582031 103.585938 109.5 100.429688 109.554688 95.480469 C 109.613281 94.191406 109.226562 93.058594 108.386719 92.078125 C 107.308594 91.242188 106.085938 90.851562 104.722656 90.910156 C 104.304688 90.945312 103.90625 91.050781 103.527344 91.230469 C 103.152344 91.40625 102.816406 91.648438 102.523438 91.945312 C 102.230469 92.246094 102 92.589844 101.832031 92.972656 C 101.664062 93.355469 101.566406 93.753906 101.542969 94.171875 C 101.464844 94.851562 101.429688 95.53125 101.433594 96.214844 L 101.378906 98.472656 C 101.273438 107.503906 101.164062 116.507812 101.082031 125.539062 C 101.128906 125.839844 101.132812 126.144531 101.085938 126.449219 C 101.039062 126.753906 100.945312 127.042969 100.8125 127.316406 C 100.675781 127.59375 100.5 127.839844 100.285156 128.0625 C 100.074219 128.28125 99.832031 128.464844 99.5625 128.613281 C 99.140625 128.84375 98.691406 128.960938 98.214844 128.953125 C 97.734375 128.949219 97.285156 128.828125 96.871094 128.585938 C 96.410156 128.277344 96.050781 127.878906 95.800781 127.382812 C 95.546875 126.890625 95.433594 126.363281 95.460938 125.808594 C 95.488281 120.941406 95.570312 116.097656 95.648438 111.230469 C 95.703125 105.789062 95.785156 100.320312 95.785156 94.855469 C 95.804688 94.578125 95.792969 94.300781 95.753906 94.027344 C 95.714844 93.75 95.648438 93.484375 95.554688 93.222656 C 95.460938 92.960938 95.339844 92.710938 95.191406 92.476562 C 95.046875 92.242188 94.878906 92.023438 94.6875 91.820312 C 94.496094 91.621094 94.285156 91.441406 94.054688 91.285156 C 93.828125 91.128906 93.585938 90.996094 93.328125 90.890625 C 93.074219 90.78125 92.808594 90.703125 92.535156 90.652344 C 92.265625 90.601562 91.988281 90.578125 91.710938 90.582031 C 91.445312 90.585938 91.175781 90.617188 90.914062 90.675781 C 90.652344 90.730469 90.394531 90.8125 90.148438 90.917969 C 89.902344 91.027344 89.667969 91.15625 89.445312 91.308594 C 89.226562 91.460938 89.019531 91.636719 88.832031 91.828125 C 88.644531 92.019531 88.476562 92.230469 88.332031 92.457031 C 88.183594 92.683594 88.0625 92.921875 87.960938 93.171875 C 87.859375 93.421875 87.785156 93.679688 87.738281 93.941406 C 87.6875 94.207031 87.664062 94.476562 87.667969 94.746094 L 87.667969 95.617188 C 87.558594 102.988281 87.503906 110.359375 87.421875 117.730469 L 87.421875 118.4375 C 87.367188 120.097656 86.851562 122.027344 84.625 122.027344 C 82.398438 122.027344 81.910156 120.015625 81.9375 118.355469 L 82.152344 102.386719 C 82.289062 92.023438 82.40625 81.640625 82.507812 71.242188 C 82.449219 68.902344 82.667969 66.59375 83.160156 64.304688 C 83.652344 62.019531 84.402344 59.820312 85.410156 57.714844 C 86.421875 55.605469 87.664062 53.644531 89.136719 51.828125 C 90.609375 50.015625 92.273438 48.398438 94.128906 46.976562 C 94.804688 46.480469 95.324219 45.847656 95.679688 45.085938 C 96.035156 44.324219 96.191406 43.519531 96.140625 42.679688 C 96.140625 41.753906 96.167969 18.851562 96.21875 8.105469 L 126.417969 8.1875 L 126.390625 20.972656 C 126.390625 21.054688 126.417969 21.136719 126.417969 21.21875 C 126.390625 30.304688 126.367188 40.367188 126.339844 40.910156 C 126.261719 41.832031 126.410156 42.710938 126.785156 43.554688 C 127.164062 44.394531 127.71875 45.09375 128.457031 45.644531 C 131.289062 47.742188 133.746094 50.214844 135.824219 53.066406 C 137.90625 55.914062 139.511719 59.007812 140.648438 62.347656 C 141.234375 64.136719 141.621094 65.96875 141.816406 67.84375 C 142.226562 72.710938 142.632812 77.554688 142.957031 82.394531 L 143.746094 93.195312 C 143.804688 94.109375 143.613281 94.972656 143.175781 95.777344 C 143.035156 96.023438 142.855469 96.238281 142.640625 96.425781 C 142.425781 96.609375 142.1875 96.753906 141.921875 96.859375 C 141.660156 96.960938 141.382812 97.019531 141.101562 97.03125 C 140.816406 97.039062 140.539062 97.003906 140.269531 96.921875 C 139.984375 96.882812 139.710938 96.804688 139.449219 96.679688 C 139.1875 96.554688 138.953125 96.390625 138.746094 96.191406 C 138.539062 95.988281 138.367188 95.761719 138.234375 95.503906 C 138.097656 95.246094 138.007812 94.976562 137.960938 94.691406 C 137.71875 93.710938 137.582031 92.730469 137.417969 91.78125 L 137.226562 90.554688 C 137.160156 89.914062 136.96875 89.3125 136.644531 88.753906 C 136.324219 88.195312 135.902344 87.726562 135.382812 87.347656 C 134.628906 86.792969 133.785156 86.554688 132.855469 86.636719 C 132.578125 86.660156 132.304688 86.707031 132.035156 86.78125 C 131.765625 86.859375 131.507812 86.960938 131.261719 87.085938 C 131.011719 87.214844 130.78125 87.363281 130.5625 87.539062 C 130.34375 87.714844 130.144531 87.910156 129.96875 88.125 C 129.789062 88.335938 129.632812 88.566406 129.5 88.8125 C 129.367188 89.058594 129.261719 89.316406 129.179688 89.582031 C 129.101562 89.851562 129.046875 90.125 129.019531 90.402344 C 128.996094 90.679688 128.996094 90.957031 129.027344 91.234375 L 129.027344 91.589844 C 128.890625 102.878906 128.726562 114.167969 128.621094 125.484375 L 128.621094 125.863281 C 128.621094 127.46875 128.210938 128.367188 127.234375 128.882812 C 126.828125 129.132812 126.382812 129.257812 125.90625 129.265625 C 125.429688 129.269531 124.984375 129.152344 124.574219 128.910156 C 124.125 128.625 123.777344 128.246094 123.527344 127.777344 C 123.28125 127.304688 123.167969 126.804688 123.1875 126.273438 C 123.1875 122.21875 123.242188 118.136719 123.324219 114.085938 L 123.542969 95.371094 C 123.582031 94.898438 123.542969 94.429688 123.425781 93.972656 C 123.304688 93.511719 123.113281 93.085938 122.84375 92.695312 C 122.578125 92.300781 122.25 91.96875 121.867188 91.6875 C 121.484375 91.410156 121.0625 91.203125 120.609375 91.074219 C 120.199219 90.941406 119.777344 90.882812 119.347656 90.894531 C 118.917969 90.90625 118.5 90.984375 118.097656 91.136719 C 117.691406 91.285156 117.324219 91.496094 116.992188 91.769531 C 116.660156 92.042969 116.378906 92.363281 116.152344 92.730469 C 115.636719 93.59375 115.394531 94.527344 115.421875 95.535156 C 115.3125 101.953125 115.367188 106.496094 115.449219 110.902344 C 115.503906 115.144531 115.558594 119.527344 115.476562 125.671875 C 115.492188 126.136719 115.484375 126.597656 115.449219 127.0625 C 115.429688 127.425781 115.339844 127.773438 115.183594 128.105469 C 115.027344 128.4375 114.816406 128.726562 114.546875 128.976562 C 114.277344 129.226562 113.972656 129.414062 113.632812 129.542969 C 113.289062 129.675781 112.933594 129.734375 112.570312 129.726562 C 112.203125 129.746094 111.84375 129.695312 111.5 129.570312 C 111.152344 129.445312 110.84375 129.257812 110.574219 129.003906 C 110.304688 128.753906 110.097656 128.457031 109.949219 128.121094 C 109.796875 127.78125 109.722656 127.429688 109.71875 127.0625 C 109.664062 124.777344 109.730469 122.492188 109.746094 120.207031 Z M 162.347656 197.703125 C 156.347656 188.808594 143.691406 170.09375 143.175781 169.332031 C 142.746094 168.605469 142.171875 168.027344 141.449219 167.59375 C 140.726562 167.160156 139.945312 166.921875 139.101562 166.882812 C 136.769531 166.730469 134.484375 166.308594 132.25 165.617188 C 130.015625 164.925781 127.894531 163.984375 125.878906 162.789062 C 123.867188 161.597656 122.023438 160.183594 120.339844 158.554688 C 118.660156 156.925781 117.191406 155.125 115.9375 153.148438 C 114.0625 150.425781 112.160156 147.679688 110.289062 144.933594 C 111.128906 143.734375 112.027344 142.457031 113.003906 141.015625 L 114.878906 138.296875 C 116.878906 137.808594 118.578125 136.808594 119.984375 135.304688 C 121.351562 136.398438 122.898438 137.078125 124.628906 137.34375 C 125.625 137.460938 126.617188 137.433594 127.605469 137.261719 C 128.59375 137.089844 129.539062 136.78125 130.4375 136.335938 C 131.339844 135.890625 132.15625 135.324219 132.890625 134.636719 C 133.625 133.953125 134.246094 133.175781 134.757812 132.3125 C 135.210938 131.554688 135.535156 130.75 135.734375 129.890625 C 135.917969 129.136719 136.0625 128.375 136.167969 127.605469 C 136.414062 124.910156 136.65625 122.191406 136.902344 119.472656 C 137.203125 113.949219 137.28125 107.9375 137.28125 104.726562 C 138.03125 104.925781 138.792969 105.042969 139.5625 105.082031 C 140.785156 106.875 142.035156 108.644531 143.257812 110.414062 L 143.449219 110.710938 C 143.574219 110.964844 143.726562 111.199219 143.902344 111.417969 C 144.078125 111.636719 144.273438 111.835938 144.488281 112.015625 C 144.707031 112.195312 144.9375 112.351562 145.1875 112.484375 C 145.433594 112.617188 145.691406 112.722656 145.960938 112.800781 C 146.230469 112.878906 146.507812 112.929688 146.785156 112.953125 C 147.066406 112.976562 147.347656 112.96875 147.625 112.933594 C 147.902344 112.898438 148.175781 112.839844 148.441406 112.746094 C 148.707031 112.65625 148.960938 112.542969 149.203125 112.398438 C 150.003906 111.953125 150.566406 111.300781 150.886719 110.441406 C 151.117188 109.835938 151.207031 109.210938 151.164062 108.5625 C 151.125 107.917969 150.949219 107.3125 150.644531 106.742188 L 150.128906 105.625 C 149.722656 104.726562 149.285156 103.832031 148.933594 102.90625 C 148.78125 102.511719 148.714844 102.101562 148.742188 101.679688 C 148.851562 101.574219 148.988281 101.464844 149.097656 101.355469 L 149.3125 101.136719 C 150.003906 100.492188 150.5625 99.746094 150.996094 98.90625 C 151.582031 98.769531 152.140625 98.832031 152.679688 99.097656 C 153.492188 99.519531 154.125 100.125 154.582031 100.917969 L 159.960938 110.304688 C 162.375 114.546875 164.738281 118.792969 167.101562 123.0625 C 168.003906 124.722656 168.710938 126.464844 169.21875 128.285156 C 170.136719 131.683594 170.519531 135.140625 170.378906 138.660156 C 170.234375 142.175781 169.566406 145.589844 168.378906 148.902344 C 168.078125 149.78125 168.007812 150.671875 168.160156 151.585938 C 168.316406 152.496094 168.675781 153.316406 169.246094 154.046875 C 169.574219 154.480469 175.222656 162.832031 180.300781 170.339844 C 180.339844 170.414062 180.382812 170.488281 180.4375 170.558594 L 187.414062 180.867188 Z M 162.347656 197.703125 " fill-opacity="1" fill-rule="nonzero"/></g><path fill="#faa87f" d="M 187.414062 180.867188 L 162.347656 197.703125 C 156.347656 188.808594 143.691406 170.09375 143.175781 169.332031 C 142.746094 168.605469 142.171875 168.027344 141.449219 167.59375 C 140.726562 167.160156 139.945312 166.921875 139.101562 166.882812 C 136.769531 166.730469 134.484375 166.308594 132.25 165.617188 C 130.015625 164.925781 127.894531 163.984375 125.878906 162.789062 C 123.867188 161.597656 122.023438 160.183594 120.339844 158.554688 C 118.660156 156.925781 117.191406 155.125 115.9375 153.148438 C 114.0625 150.425781 112.160156 147.679688 110.289062 144.933594 C 111.128906 143.734375 112.027344 142.457031 113.003906 141.015625 L 114.878906 138.296875 C 116.878906 137.808594 118.578125 136.808594 119.984375 135.304688 C 121.351562 136.398438 122.898438 137.078125 124.628906 137.34375 C 125.625 137.460938 126.617188 137.433594 127.605469 137.261719 C 128.59375 137.089844 129.539062 136.78125 130.4375 136.335938 C 131.339844 135.890625 132.15625 135.324219 132.890625 134.636719 C 133.625 133.953125 134.246094 133.175781 134.757812 132.3125 C 135.210938 131.554688 135.535156 130.75 135.734375 129.890625 C 135.917969 129.136719 136.0625 128.375 136.167969 127.605469 C 136.414062 124.910156 136.65625 122.191406 136.902344 119.472656 C 137.203125 113.949219 137.28125 107.9375 137.28125 104.726562 C 138.03125 104.925781 138.792969 105.042969 139.5625 105.082031 C 140.785156 106.875 142.035156 108.644531 143.257812 110.414062 L 143.449219 110.710938 C 143.574219 110.964844 143.726562 111.199219 143.902344 111.417969 C 144.078125 111.636719 144.273438 111.835938 144.488281 112.015625 C 144.707031 112.195312 144.9375 112.351562 145.1875 112.484375 C 145.433594 112.617188 145.691406 112.722656 145.960938 112.800781 C 146.230469 112.878906 146.507812 112.929688 146.785156 112.953125 C 147.066406 112.976562 147.347656 112.96875 147.625 112.933594 C 147.902344 112.898438 148.175781 112.839844 148.441406 112.746094 C 148.707031 112.65625 148.960938 112.542969 149.203125 112.398438 C 150.003906 111.953125 150.566406 111.300781 150.886719 110.441406 C 151.117188 109.835938 151.207031 109.210938 151.164062 108.5625 C 151.125 107.917969 150.949219 107.3125 150.644531 106.742188 L 150.128906 105.625 C 149.722656 104.726562 149.285156 103.832031 148.933594 102.90625 C 148.78125 102.511719 148.714844 102.101562 148.742188 101.679688 C 148.851562 101.574219 148.988281 101.464844 149.097656 101.355469 L 149.3125 101.136719 C 150.003906 100.492188 150.5625 99.746094 150.996094 98.90625 C 151.582031 98.769531 152.140625 98.832031 152.679688 99.097656 C 153.492188 99.519531 154.125 100.125 154.582031 100.917969 L 159.960938 110.304688 C 162.375 114.546875 164.738281 118.792969 167.101562 123.0625 C 168.003906 124.722656 168.710938 126.464844 169.21875 128.285156 C 170.136719 131.683594 170.519531 135.140625 170.378906 138.660156 C 170.234375 142.175781 169.566406 145.589844 168.378906 148.902344 C 168.078125 149.78125 168.007812 150.671875 168.160156 151.585938 C 168.316406 152.496094 168.675781 153.316406 169.246094 154.046875 C 169.574219 154.480469 175.222656 162.832031 180.300781 170.339844 C 180.339844 170.414062 180.382812 170.488281 180.4375 170.558594 Z M 94.589844 136.472656 C 93.808594 136.199219 93.066406 135.839844 92.367188 135.398438 C 91.667969 134.953125 91.023438 134.4375 90.441406 133.851562 C 89.859375 133.261719 89.347656 132.613281 88.910156 131.90625 C 88.476562 131.203125 88.125 130.457031 87.855469 129.671875 L 87.828125 129.671875 C 87.003906 129.917969 86.160156 130.070312 85.300781 130.121094 C 84.441406 130.171875 83.585938 130.121094 82.738281 129.972656 C 81.890625 129.824219 81.070312 129.578125 80.277344 129.238281 C 79.488281 128.898438 78.746094 128.472656 78.050781 127.957031 C 77.367188 127.433594 76.753906 126.835938 76.210938 126.164062 C 75.667969 125.492188 75.210938 124.765625 74.839844 123.984375 C 74.46875 123.203125 74.195312 122.390625 74.015625 121.546875 C 73.839844 120.699219 73.761719 119.847656 73.789062 118.980469 C 73.84375 112.941406 73.914062 106.914062 74.007812 100.890625 C 71.832031 104.074219 69.632812 107.285156 67.433594 110.46875 L 67.242188 110.765625 C 67.117188 111.015625 66.964844 111.25 66.789062 111.46875 C 66.613281 111.6875 66.414062 111.886719 66.199219 112.066406 C 65.984375 112.246094 65.753906 112.402344 65.503906 112.535156 C 65.257812 112.667969 65 112.773438 64.730469 112.855469 C 64.460938 112.933594 64.1875 112.984375 63.90625 113.011719 C 63.628906 113.035156 63.347656 113.03125 63.070312 113 C 62.792969 112.96875 62.519531 112.90625 62.253906 112.820312 C 61.984375 112.734375 61.730469 112.621094 61.488281 112.480469 C 60.691406 112.015625 60.128906 111.355469 59.800781 110.496094 C 59.574219 109.890625 59.484375 109.265625 59.523438 108.617188 C 59.566406 107.972656 59.742188 107.367188 60.046875 106.796875 L 60.5625 105.679688 C 60.96875 104.78125 61.378906 103.882812 61.730469 102.960938 C 61.851562 102.695312 61.925781 102.417969 61.953125 102.128906 C 61.984375 101.839844 61.96875 101.554688 61.910156 101.269531 C 61.847656 100.988281 61.746094 100.71875 61.597656 100.46875 C 61.449219 100.21875 61.269531 99.996094 61.050781 99.804688 C 60.867188 99.585938 60.65625 99.40625 60.410156 99.257812 C 60.167969 99.113281 59.90625 99.011719 59.628906 98.949219 C 59.351562 98.890625 59.070312 98.878906 58.789062 98.914062 C 58.507812 98.949219 58.238281 99.027344 57.984375 99.152344 C 57.171875 99.574219 56.539062 100.179688 56.082031 100.972656 L 50.730469 110.386719 C 48.316406 114.601562 45.953125 118.871094 43.589844 123.144531 C 42.695312 124.804688 42 126.546875 41.5 128.367188 C 40.582031 131.769531 40.195312 135.234375 40.339844 138.753906 C 40.484375 142.277344 41.152344 145.695312 42.339844 149.011719 C 42.648438 149.882812 42.730469 150.769531 42.582031 151.679688 C 42.429688 152.589844 42.070312 153.40625 41.5 154.125 C 41.171875 154.5625 35.523438 162.914062 30.445312 170.449219 C 30.414062 170.523438 30.378906 170.597656 30.335938 170.664062 L 21.945312 183.042969 L 47.039062 199.855469 C 53.039062 190.929688 67.082031 170.148438 67.570312 169.386719 C 68 168.660156 68.574219 168.082031 69.296875 167.648438 C 70.019531 167.210938 70.800781 166.976562 71.644531 166.9375 C 73.976562 166.78125 76.261719 166.351562 78.496094 165.65625 C 80.726562 164.960938 82.851562 164.015625 84.863281 162.820312 C 86.875 161.625 88.71875 160.210938 90.402344 158.582031 C 92.082031 156.953125 93.550781 155.148438 94.808594 153.175781 C 96.683594 150.425781 98.554688 147.679688 100.457031 144.933594 C 99.617188 143.734375 98.71875 142.457031 97.714844 141.042969 Z M 94.589844 136.472656 " fill-opacity="1" fill-rule="nonzero"/><path fill="#ffcfb7" d="M 143.746094 93.195312 C 143.804688 94.109375 143.613281 94.972656 143.175781 95.777344 C 143.035156 96.023438 142.855469 96.238281 142.640625 96.425781 C 142.425781 96.609375 142.1875 96.753906 141.921875 96.859375 C 141.660156 96.960938 141.382812 97.019531 141.101562 97.03125 C 140.816406 97.039062 140.539062 97.003906 140.269531 96.921875 C 139.984375 96.882812 139.710938 96.804688 139.449219 96.679688 C 139.1875 96.554688 138.953125 96.390625 138.746094 96.191406 C 138.539062 95.988281 138.367188 95.761719 138.234375 95.503906 C 138.097656 95.246094 138.007812 94.976562 137.960938 94.691406 C 137.71875 93.710938 137.582031 92.730469 137.417969 91.78125 L 137.226562 90.554688 C 137.160156 89.914062 136.96875 89.3125 136.644531 88.753906 C 136.324219 88.195312 135.902344 87.726562 135.382812 87.347656 C 134.628906 86.792969 133.785156 86.554688 132.855469 86.636719 C 132.578125 86.660156 132.304688 86.707031 132.035156 86.78125 C 131.765625 86.859375 131.507812 86.960938 131.261719 87.085938 C 131.011719 87.214844 130.78125 87.363281 130.5625 87.539062 C 130.34375 87.714844 130.144531 87.910156 129.96875 88.125 C 129.789062 88.335938 129.632812 88.566406 129.5 88.8125 C 129.367188 89.058594 129.261719 89.316406 129.179688 89.582031 C 129.101562 89.851562 129.046875 90.125 129.019531 90.402344 C 128.996094 90.679688 128.996094 90.957031 129.027344 91.234375 L 129.027344 91.589844 C 128.890625 102.878906 128.726562 114.167969 128.621094 125.484375 L 128.621094 125.863281 C 128.621094 127.46875 128.210938 128.367188 127.234375 128.882812 C 126.828125 129.132812 126.382812 129.257812 125.90625 129.265625 C 125.429688 129.269531 124.984375 129.152344 124.574219 128.910156 C 124.125 128.625 123.777344 128.246094 123.527344 127.777344 C 123.28125 127.304688 123.167969 126.804688 123.1875 126.273438 C 123.1875 122.21875 123.242188 118.136719 123.324219 114.085938 L 123.542969 95.371094 C 123.582031 94.898438 123.542969 94.429688 123.425781 93.972656 C 123.304688 93.511719 123.113281 93.085938 122.84375 92.695312 C 122.578125 92.300781 122.25 91.96875 121.867188 91.6875 C 121.484375 91.410156 121.0625 91.203125 120.609375 91.074219 C 120.199219 90.941406 119.777344 90.882812 119.347656 90.894531 C 118.917969 90.90625 118.5 90.984375 118.097656 91.136719 C 117.691406 91.285156 117.324219 91.496094 116.992188 91.769531 C 116.660156 92.042969 116.378906 92.363281 116.152344 92.730469 C 115.636719 93.59375 115.394531 94.527344 115.421875 95.535156 C 115.3125 101.953125 115.367188 106.496094 115.449219 110.902344 C 115.503906 115.144531 115.558594 119.527344 115.476562 125.671875 C 115.492188 126.136719 115.484375 126.597656 115.449219 127.0625 C 115.429688 127.425781 115.339844 127.773438 115.183594 128.105469 C 115.027344 128.4375 114.816406 128.726562 114.546875 128.976562 C 114.277344 129.226562 113.972656 129.414062 113.632812 129.542969 C 113.289062 129.675781 112.933594 129.734375 112.570312 129.726562 C 112.203125 129.746094 111.84375 129.695312 111.5 129.570312 C 111.152344 129.445312 110.84375 129.257812 110.574219 129.003906 C 110.304688 128.753906 110.097656 128.457031 109.949219 128.121094 C 109.796875 127.78125 109.722656 127.429688 109.71875 127.0625 C 109.664062 124.777344 109.71875 122.492188 109.746094 120.207031 L 109.773438 118.410156 C 109.828125 113.214844 109.746094 109.894531 109.664062 106.6875 C 109.582031 103.585938 109.5 100.429688 109.554688 95.480469 C 109.613281 94.191406 109.226562 93.058594 108.386719 92.078125 C 107.308594 91.242188 106.085938 90.851562 104.722656 90.910156 C 104.304688 90.945312 103.90625 91.050781 103.527344 91.230469 C 103.152344 91.40625 102.816406 91.648438 102.523438 91.945312 C 102.230469 92.246094 102 92.589844 101.832031 92.972656 C 101.664062 93.355469 101.566406 93.753906 101.542969 94.171875 C 101.464844 94.851562 101.429688 95.53125 101.433594 96.214844 L 101.378906 98.472656 C 101.273438 107.503906 101.164062 116.507812 101.082031 125.539062 C 101.128906 125.839844 101.132812 126.144531 101.085938 126.449219 C 101.039062 126.753906 100.945312 127.042969 100.8125 127.316406 C 100.675781 127.59375 100.5 127.839844 100.285156 128.0625 C 100.074219 128.28125 99.832031 128.464844 99.5625 128.613281 C 99.140625 128.84375 98.691406 128.960938 98.214844 128.953125 C 97.734375 128.949219 97.285156 128.824219 96.871094 128.585938 C 96.410156 128.277344 96.050781 127.878906 95.800781 127.382812 C 95.546875 126.890625 95.433594 126.363281 95.460938 125.808594 C 95.488281 120.941406 95.570312 116.097656 95.648438 111.230469 C 95.703125 105.789062 95.785156 100.320312 95.785156 94.855469 C 95.804688 94.578125 95.792969 94.300781 95.753906 94.027344 C 95.714844 93.75 95.648438 93.484375 95.554688 93.222656 C 95.460938 92.960938 95.339844 92.710938 95.191406 92.476562 C 95.046875 92.242188 94.878906 92.023438 94.6875 91.820312 C 94.496094 91.621094 94.285156 91.441406 94.054688 91.285156 C 93.828125 91.128906 93.585938 90.996094 93.328125 90.890625 C 93.074219 90.78125 92.808594 90.703125 92.535156 90.652344 C 92.265625 90.601562 91.988281 90.578125 91.710938 90.582031 C 91.445312 90.585938 91.175781 90.617188 90.914062 90.675781 C 90.652344 90.730469 90.394531 90.8125 90.148438 90.917969 C 89.902344 91.027344 89.667969 91.15625 89.445312 91.308594 C 89.226562 91.460938 89.019531 91.636719 88.832031 91.828125 C 88.644531 92.019531 88.476562 92.230469 88.332031 92.457031 C 88.183594 92.683594 88.0625 92.921875 87.960938 93.171875 C 87.859375 93.421875 87.785156 93.679688 87.738281 93.941406 C 87.6875 94.207031 87.664062 94.476562 87.667969 94.746094 L 87.667969 95.617188 C 87.558594 102.988281 87.503906 110.359375 87.421875 117.730469 L 87.421875 118.4375 C 87.367188 120.097656 86.851562 122.027344 84.625 122.027344 C 82.398438 122.027344 81.910156 120.015625 81.9375 118.355469 L 82.152344 102.386719 C 82.289062 92.023438 82.40625 81.640625 82.507812 71.242188 C 82.449219 68.902344 82.667969 66.59375 83.160156 64.304688 C 83.652344 62.019531 84.402344 59.820312 85.410156 57.714844 C 86.421875 55.605469 87.664062 53.644531 89.136719 51.828125 C 90.609375 50.015625 92.273438 48.398438 94.128906 46.976562 C 94.804688 46.480469 95.324219 45.847656 95.679688 45.085938 C 96.035156 44.324219 96.191406 43.519531 96.140625 42.679688 C 96.140625 41.753906 96.167969 18.851562 96.21875 8.105469 L 126.417969 8.1875 L 126.390625 20.972656 C 126.390625 21.054688 126.417969 21.136719 126.417969 21.21875 C 126.390625 30.304688 126.367188 40.367188 126.339844 40.910156 C 126.261719 41.832031 126.410156 42.710938 126.785156 43.554688 C 127.164062 44.394531 127.71875 45.09375 128.457031 45.644531 C 131.289062 47.742188 133.746094 50.214844 135.824219 53.0625 C 137.90625 55.914062 139.511719 59.007812 140.648438 62.347656 C 141.234375 64.136719 141.621094 65.96875 141.816406 67.84375 C 142.226562 72.710938 142.632812 77.554688 142.957031 82.394531 Z M 143.746094 93.195312 " fill-opacity="1" fill-rule="nonzero"/></svg>