<svg width="81" height="81" viewBox="0 0 81 81" fill="none" xmlns="http://www.w3.org/2000/svg">
<circle cx="40.5" cy="40.5" r="40.5" fill="#FAA87F"/>
<path d="M30.3564 25.7075L31.1768 28.0488C30.0033 28.4476 29.1943 29.154 28.75 30.168C28.3171 31.182 28.1006 32.3441 28.1006 33.6543V37.1748C28.1006 38.3141 27.8556 39.3509 27.3657 40.2852C26.8872 41.2194 26.1239 41.96 25.0757 42.5068C24.0275 43.0537 22.6546 43.3271 20.957 43.3271V40.9688C22.1305 40.9688 22.9736 40.627 23.4863 39.9434C23.999 39.2598 24.2554 38.3369 24.2554 37.1748V33.6543C24.2554 32.458 24.4377 31.3415 24.8022 30.3047C25.1782 29.2565 25.8105 28.3394 26.6992 27.5532C27.5879 26.7557 28.807 26.1405 30.3564 25.7075ZM31.1768 56.8623L30.3564 59.2207C28.807 58.7764 27.5879 58.1554 26.6992 57.3579C25.8105 56.5718 25.1782 55.6546 24.8022 54.6064C24.4377 53.5697 24.2554 52.4531 24.2554 51.2568V47.7705C24.2554 46.9844 24.1414 46.3122 23.9136 45.7539C23.6857 45.1842 23.3268 44.7456 22.8369 44.438C22.3584 44.119 21.7318 43.9595 20.957 43.9595V41.584C22.6546 41.584 24.0275 41.8631 25.0757 42.4214C26.1239 42.9683 26.8872 43.7088 27.3657 44.6431C27.8556 45.5659 28.1006 46.6084 28.1006 47.7705V51.2568C28.1006 52.1341 28.1917 52.943 28.374 53.6836C28.5677 54.4355 28.8867 55.085 29.3311 55.6318C29.7868 56.1787 30.402 56.5889 31.1768 56.8623ZM49.5996 28.0488L50.4199 25.7075C51.9808 26.1405 53.2056 26.7557 54.0942 27.5532C54.9829 28.3394 55.6095 29.2565 55.9741 30.3047C56.3387 31.3415 56.521 32.458 56.521 33.6543V37.1748C56.521 37.9382 56.6349 38.6047 56.8628 39.1743C57.0907 39.744 57.4495 40.1883 57.9395 40.5073C58.4294 40.8149 59.0617 40.9688 59.8364 40.9688V43.2246C58.1502 43.2246 56.7773 42.9626 55.7178 42.4385C54.6582 41.903 53.8835 41.1795 53.3936 40.2681C52.915 39.3452 52.6758 38.3141 52.6758 37.1748V33.6543C52.6758 32.777 52.5846 31.9624 52.4023 31.2104C52.2201 30.4585 51.901 29.8091 51.4453 29.2622C51.001 28.7153 50.3857 28.3109 49.5996 28.0488ZM50.4199 59.2207L49.5996 56.8623C50.3857 56.5889 51.001 56.1787 51.4453 55.6318C51.8896 55.085 52.203 54.4355 52.3853 53.6836C52.5789 52.943 52.6758 52.1341 52.6758 51.2568V47.7705C52.6758 46.6084 52.915 45.5716 53.3936 44.6602C53.8835 43.7487 54.6582 43.0309 55.7178 42.5068C56.7773 41.9714 58.1502 41.7036 59.8364 41.7036V43.9595C58.6743 43.9595 57.8312 44.307 57.3071 45.002C56.783 45.6855 56.521 46.6084 56.521 47.7705V51.2568C56.521 52.4531 56.3387 53.5697 55.9741 54.6064C55.6095 55.6546 54.9829 56.5718 54.0942 57.3579C53.2056 58.1554 51.9808 58.7764 50.4199 59.2207Z" fill="#323232"/>
</svg>
