<svg xmlns="http://www.w3.org/2000/svg" xmlns:xlink="http://www.w3.org/1999/xlink" width="280" zoomAndPan="magnify" viewBox="0 0 210 209.999996" height="280" preserveAspectRatio="xMidYMid meet" version="1.0"><defs><clipPath id="7fb72a70c8"><path d="M 22.527344 0 L 132 0 L 132 163 L 22.527344 163 Z M 22.527344 0 " clip-rule="nonzero"/></clipPath><clipPath id="d74dccd2d1"><path d="M 119 54 L 187.527344 54 L 187.527344 210 L 119 210 Z M 119 54 " clip-rule="nonzero"/></clipPath></defs><g clip-path="url(#7fb72a70c8)"><path fill="#2ba977" d="M 96.75 0 L 131.148438 0 L 131.148438 157.589844 C 113.53125 160.921875 100.558594 162.230469 86.527344 162.230469 C 44.519531 162.191406 22.648438 143.429688 22.648438 107.394531 C 22.648438 72.679688 45.847656 50.148438 81.792969 50.148438 C 87.371094 50.148438 91.617188 50.585938 96.75 51.902344 Z M 97.957031 80.300781 C 93.929688 78.984375 90.609375 78.546875 86.359375 78.546875 C 68.964844 78.546875 58.914062 89.15625 58.914062 107.742188 C 58.914062 125.84375 68.519531 135.839844 86.140625 135.839844 C 89.945312 135.839844 93.046875 135.621094 97.957031 134.964844 Z M 97.957031 80.300781 " fill-opacity="1" fill-rule="nonzero"/></g><g clip-path="url(#d74dccd2d1)"><path fill="#2ba977" d="M 187.398438 54.378906 L 187.398438 133.28125 C 187.398438 160.457031 185.359375 173.523438 179.386719 184.785156 C 173.808594 195.621094 166.453125 202.449219 151.269531 209.996094 L 119.359375 194.957031 C 134.542969 187.902344 141.890625 181.667969 146.582031 172.15625 C 151.496094 162.429688 153.046875 151.167969 153.046875 121.535156 L 153.046875 54.378906 Z M 187.398438 54.378906 " fill-opacity="1" fill-rule="nonzero"/></g><path fill="#2ba977" d="M 149.578125 0 L 183.976562 0 L 183.976562 34.9375 L 149.578125 34.9375 Z M 149.578125 0 " fill-opacity="1" fill-rule="nonzero"/></svg>