<svg xmlns="http://www.w3.org/2000/svg" xmlns:xlink="http://www.w3.org/1999/xlink" width="280" zoomAndPan="magnify" viewBox="0 0 210 209.999996" height="280" preserveAspectRatio="xMidYMid meet" version="1.0"><defs><clipPath id="53cabb4518"><path d="M 105 0 C 47.011719 0 0 47.011719 0 105 C 0 162.988281 47.011719 210 105 210 C 162.988281 210 210 162.988281 210 105 C 210 47.011719 162.988281 0 105 0 " clip-rule="nonzero"/></clipPath><clipPath id="2a666dca36"><path d="M 22 102 L 91 102 L 91 135.5625 L 22 135.5625 Z M 22 102 " clip-rule="nonzero"/></clipPath></defs><g clip-path="url(#53cabb4518)"><rect x="-21" width="252" fill="#e2dedf" y="-21" height="251.999995" fill-opacity="1"/></g><g clip-path="url(#2a666dca36)"><path fill="#00618a" d="M 22.46875 127.980469 L 27.9375 127.980469 L 27.9375 106.421875 L 36.40625 125.222656 C 37.402344 127.488281 38.773438 128.304688 41.453125 128.304688 C 44.136719 128.304688 45.449219 127.5 46.449219 125.222656 L 54.917969 106.421875 L 54.917969 127.988281 L 60.390625 127.988281 L 60.390625 106.457031 C 60.390625 104.355469 59.546875 103.339844 57.8125 102.816406 C 53.65625 101.519531 50.867188 102.640625 49.605469 105.441406 L 41.296875 123.996094 L 33.25 105.433594 C 32.039062 102.632812 29.199219 101.511719 25.046875 102.808594 C 23.308594 103.332031 22.46875 104.347656 22.46875 106.449219 Z M 64.933594 110.425781 L 70.402344 110.425781 L 70.402344 122.308594 C 70.351562 122.957031 70.609375 124.46875 73.605469 124.515625 C 75.136719 124.542969 85.40625 124.515625 85.5 124.515625 L 85.5 110.367188 L 90.980469 110.367188 C 91.003906 110.367188 90.976562 129.660156 90.976562 129.742188 C 91.007812 134.5 85.0625 135.535156 82.324219 135.613281 L 65.054688 135.613281 L 65.054688 131.941406 L 82.355469 131.9375 C 85.875 131.566406 85.460938 129.820312 85.460938 129.230469 L 85.460938 127.800781 L 73.835938 127.800781 C 68.425781 127.75 64.984375 125.394531 64.941406 122.679688 C 64.9375 122.4375 65.054688 110.542969 64.9375 110.425781 Z M 64.933594 110.425781 " fill-opacity="1" fill-rule="nonzero"/></g><path fill="#e48e00" d="M 95.195312 127.980469 L 110.921875 127.980469 C 112.761719 127.980469 114.550781 127.597656 115.972656 126.929688 C 118.339844 125.84375 119.496094 124.375 119.496094 122.449219 L 119.496094 118.457031 C 119.496094 116.882812 118.183594 115.410156 115.605469 114.429688 C 114.238281 113.90625 112.554688 113.625 110.925781 113.625 L 104.296875 113.625 C 102.089844 113.625 101.035156 112.960938 100.773438 111.492188 C 100.722656 111.316406 100.722656 111.167969 100.722656 111 L 100.722656 108.515625 C 100.722656 108.375 100.722656 108.234375 100.773438 108.058594 C 101.035156 106.9375 101.617188 106.621094 103.5625 106.441406 C 103.71875 106.441406 103.929688 106.402344 104.089844 106.402344 L 119.707031 106.402344 L 119.707031 102.765625 L 104.351562 102.765625 C 102.140625 102.765625 100.984375 102.902344 99.933594 103.21875 C 96.667969 104.234375 95.246094 105.855469 95.246094 108.65625 L 95.246094 111.839844 C 95.246094 114.292969 98.035156 116.394531 102.714844 116.882812 C 103.242188 116.917969 103.765625 116.953125 104.292969 116.953125 L 109.972656 116.953125 C 110.183594 116.953125 110.394531 116.953125 110.550781 116.988281 C 112.285156 117.128906 113.023438 117.441406 113.550781 118.074219 C 113.875 118.394531 113.972656 118.703125 113.972656 119.042969 L 113.972656 122.230469 C 113.972656 122.617188 113.707031 123.105469 113.183594 123.523438 C 112.707031 123.945312 111.921875 124.226562 110.867188 124.296875 C 110.65625 124.296875 110.5 124.332031 110.289062 124.332031 L 95.195312 124.332031 Z M 153.617188 121.644531 C 153.617188 125.390625 156.402344 127.492188 162.03125 127.910156 C 162.554688 127.953125 163.082031 127.976562 163.609375 127.980469 L 177.863281 127.980469 L 177.863281 124.339844 L 163.503906 124.339844 C 160.296875 124.339844 159.085938 123.535156 159.085938 121.609375 L 159.085938 102.769531 L 153.617188 102.769531 Z M 122.984375 121.832031 L 122.984375 108.851562 C 122.984375 105.554688 125.304688 103.554688 129.890625 102.921875 C 130.378906 102.855469 130.871094 102.820312 131.367188 102.816406 L 141.746094 102.816406 C 142.257812 102.820312 142.769531 102.855469 143.277344 102.921875 C 147.863281 103.554688 150.179688 105.554688 150.179688 108.851562 L 150.179688 121.832031 C 150.179688 124.507812 149.195312 125.941406 146.925781 126.875 L 152.3125 131.730469 L 145.960938 131.730469 L 141.601562 127.800781 L 137.214844 128.078125 L 131.367188 128.078125 C 130.363281 128.078125 129.308594 127.9375 128.152344 127.621094 C 124.664062 126.675781 122.988281 124.851562 122.988281 121.832031 Z M 128.890625 121.507812 C 128.890625 121.683594 128.941406 121.859375 128.996094 122.070312 C 129.320312 123.582031 130.734375 124.421875 132.886719 124.421875 L 137.855469 124.421875 L 133.292969 120.308594 L 139.640625 120.308594 L 143.613281 123.894531 C 144.347656 123.503906 144.832031 122.910156 144.992188 122.140625 C 145.046875 121.96875 145.046875 121.792969 145.046875 121.617188 L 145.046875 109.167969 C 145.046875 109.03125 145.046875 108.84375 144.992188 108.679688 C 144.667969 107.273438 143.253906 106.46875 141.144531 106.46875 L 132.902344 106.46875 C 130.46875 106.46875 128.894531 107.519531 128.894531 109.167969 L 128.894531 121.519531 Z M 128.890625 121.507812 " fill-opacity="1" fill-rule="nonzero"/><path fill="#00618a" d="M 182.671875 96.730469 C 179.308594 96.640625 176.738281 96.953125 174.542969 97.875 C 173.921875 98.140625 172.925781 98.144531 172.824219 98.925781 C 173.167969 99.285156 173.222656 99.820312 173.492188 100.261719 C 174.015625 101.109375 174.902344 102.246094 175.691406 102.839844 C 176.554688 103.488281 177.441406 104.1875 178.371094 104.75 C 180.015625 105.753906 181.851562 106.324219 183.4375 107.328125 C 184.371094 107.917969 185.296875 108.664062 186.207031 109.332031 C 186.660156 109.664062 186.960938 110.175781 187.546875 110.382812 L 187.546875 110.285156 C 187.238281 109.894531 187.160156 109.359375 186.878906 108.949219 L 185.632812 107.710938 C 184.417969 106.089844 182.875 104.683594 181.238281 103.507812 C 179.929688 102.570312 177 101.304688 176.457031 99.785156 L 176.359375 99.6875 C 177.289062 99.585938 178.375 99.25 179.230469 99.023438 C 180.667969 98.636719 181.953125 98.734375 183.4375 98.355469 L 185.445312 97.78125 L 185.445312 97.398438 C 184.695312 96.628906 184.160156 95.613281 183.34375 94.917969 C 181.203125 93.09375 178.863281 91.277344 176.460938 89.761719 C 175.125 88.917969 173.476562 88.371094 172.0625 87.660156 C 171.585938 87.417969 170.75 87.296875 170.4375 86.894531 C 169.695312 85.949219 169.289062 84.75 168.714844 83.65625 C 167.515625 81.351562 166.335938 78.828125 165.273438 76.402344 C 164.546875 74.746094 164.074219 73.113281 163.171875 71.628906 C 158.828125 64.5 154.15625 60.199219 146.917969 55.972656 C 145.378906 55.074219 143.523438 54.71875 141.5625 54.253906 L 138.410156 54.0625 C 137.765625 53.796875 137.097656 53.011719 136.496094 52.628906 C 134.097656 51.117188 127.949219 47.828125 126.171875 52.144531 C 125.050781 54.875 127.847656 57.539062 128.847656 58.921875 C 129.550781 59.894531 130.449219 60.980469 130.953125 62.074219 C 131.28125 62.789062 131.339844 63.511719 131.621094 64.269531 C 132.316406 66.132812 132.921875 68.175781 133.820312 69.902344 C 134.273438 70.777344 134.773438 71.699219 135.347656 72.480469 C 135.703125 72.960938 136.304688 73.171875 136.402344 73.914062 C 135.808594 74.738281 135.777344 76.015625 135.445312 77.0625 C 133.949219 81.769531 134.511719 87.613281 136.6875 91.097656 C 137.355469 92.164062 138.925781 94.457031 141.085938 93.578125 C 142.972656 92.808594 142.542969 90.429688 143.09375 88.328125 C 143.214844 87.851562 143.140625 87.503906 143.378906 87.183594 L 143.378906 87.277344 L 145.101562 90.714844 C 146.375 92.761719 148.636719 94.90625 150.550781 96.347656 C 151.542969 97.097656 152.332031 98.394531 153.609375 98.832031 L 153.609375 98.734375 L 153.511719 98.734375 C 153.265625 98.347656 152.875 98.1875 152.558594 97.878906 C 151.808594 97.144531 150.976562 96.234375 150.359375 95.394531 C 148.613281 93.035156 147.074219 90.449219 145.671875 87.757812 C 145.003906 86.472656 144.421875 85.054688 143.859375 83.75 C 143.640625 83.246094 143.644531 82.484375 143.1875 82.222656 C 142.570312 83.179688 141.660156 83.953125 141.179688 85.085938 C 140.414062 86.894531 140.316406 89.097656 140.035156 91.386719 C 139.867188 91.445312 139.941406 91.40625 139.84375 91.480469 C 138.511719 91.160156 138.042969 89.792969 137.546875 88.617188 C 136.296875 85.648438 136.066406 80.867188 137.164062 77.449219 C 137.449219 76.5625 138.738281 73.777344 138.21875 72.960938 C 137.96875 72.144531 137.148438 71.667969 136.6875 71.050781 C 136.121094 70.28125 135.550781 69.265625 135.15625 68.378906 C 134.132812 66.0625 133.65625 63.464844 132.578125 61.121094 C 132.0625 60.003906 131.191406 58.871094 130.472656 57.882812 C 129.679688 56.785156 128.792969 55.96875 128.179688 54.644531 C 127.960938 54.171875 127.664062 53.414062 127.988281 52.929688 C 128.058594 52.613281 128.25 52.421875 128.5625 52.355469 C 129.117188 51.929688 130.660156 52.496094 131.238281 52.738281 C 132.769531 53.371094 134.050781 53.976562 135.351562 54.835938 C 135.976562 55.242188 136.605469 56.046875 137.359375 56.269531 L 138.21875 56.269531 C 139.5625 56.578125 141.070312 56.367188 142.328125 56.746094 C 144.550781 57.421875 146.542969 58.472656 148.351562 59.613281 C 153.863281 63.085938 158.367188 68.03125 161.449219 73.941406 C 161.945312 74.890625 162.160156 75.796875 162.59375 76.804688 C 163.476562 78.828125 164.585938 80.925781 165.464844 82.914062 C 166.339844 84.898438 167.191406 86.894531 168.425781 88.546875 C 169.078125 89.410156 171.589844 89.878906 172.730469 90.359375 C 173.53125 90.695312 174.839844 91.046875 175.597656 91.503906 C 177.042969 92.375 178.445312 93.414062 179.804688 94.371094 C 180.484375 94.847656 182.570312 95.894531 182.671875 96.757812 Z M 182.671875 96.730469 " fill-opacity="1" fill-rule="nonzero"/><path fill="#00618a" d="M 139.941406 60.359375 C 139.238281 60.34375 138.746094 60.433594 138.21875 60.550781 L 138.21875 60.644531 L 138.316406 60.644531 C 138.648438 61.332031 139.238281 61.773438 139.652344 62.363281 L 140.609375 64.367188 L 140.707031 64.273438 C 141.296875 63.855469 141.570312 63.1875 141.5625 62.171875 C 141.328125 61.921875 141.292969 61.609375 141.085938 61.3125 C 140.8125 60.914062 140.277344 60.691406 139.9375 60.355469 Z M 139.941406 60.359375 " fill-opacity="1" fill-rule="evenodd"/><path fill="#e48e00" d="M 180.433594 124.234375 C 180.433594 126.640625 182.335938 128.261719 184.464844 128.261719 C 186.59375 128.261719 188.496094 126.640625 188.496094 124.234375 C 188.496094 121.832031 186.59375 120.210938 184.464844 120.210938 C 182.335938 120.210938 180.433594 121.832031 180.433594 124.234375 Z M 187.589844 124.234375 C 187.589844 126.0625 186.195312 127.421875 184.460938 127.421875 C 182.710938 127.421875 181.332031 126.0625 181.332031 124.234375 C 181.332031 122.410156 182.710938 121.046875 184.460938 121.046875 C 186.191406 121.046875 187.589844 122.410156 187.589844 124.234375 Z M 185.546875 126.535156 L 186.449219 126.535156 L 185.128906 124.515625 C 185.839844 124.441406 186.375 124.097656 186.375 123.257812 C 186.375 122.324219 185.785156 121.941406 184.644531 121.941406 L 182.851562 121.941406 L 182.851562 126.535156 L 183.625 126.535156 L 183.625 124.546875 L 184.34375 124.546875 Z M 183.625 123.902344 L 183.625 122.582031 L 184.515625 122.582031 C 184.976562 122.582031 185.539062 122.667969 185.539062 123.207031 C 185.539062 123.851562 185.03125 123.902344 184.449219 123.902344 Z M 183.625 123.902344 " fill-opacity="1" fill-rule="evenodd"/></svg>