<svg xmlns="http://www.w3.org/2000/svg" xmlns:xlink="http://www.w3.org/1999/xlink" width="280" zoomAndPan="magnify" viewBox="0 0 210 209.999996" height="280" preserveAspectRatio="xMidYMid meet" version="1.0"><defs><clipPath id="e46e3249c7"><path d="M 0 6.683594 L 210 6.683594 L 210 203.183594 L 0 203.183594 Z M 0 6.683594 " clip-rule="nonzero"/></clipPath></defs><path fill="#00d8ff" d="M 123.753906 104.757812 C 123.753906 105.375 123.722656 105.984375 123.664062 106.597656 C 123.601562 107.207031 123.511719 107.8125 123.394531 108.414062 C 123.273438 109.015625 123.125 109.613281 122.945312 110.199219 C 122.769531 110.785156 122.5625 111.363281 122.324219 111.929688 C 122.089844 112.496094 121.828125 113.050781 121.539062 113.59375 C 121.25 114.132812 120.933594 114.660156 120.59375 115.171875 C 120.253906 115.679688 119.886719 116.171875 119.496094 116.648438 C 119.105469 117.121094 118.695312 117.578125 118.261719 118.011719 C 117.828125 118.445312 117.371094 118.855469 116.898438 119.246094 C 116.421875 119.636719 115.929688 120 115.417969 120.339844 C 114.910156 120.683594 114.382812 120.996094 113.839844 121.285156 C 113.300781 121.574219 112.746094 121.839844 112.175781 122.074219 C 111.609375 122.308594 111.03125 122.515625 110.445312 122.691406 C 109.855469 122.871094 109.261719 123.019531 108.660156 123.140625 C 108.058594 123.257812 107.449219 123.347656 106.839844 123.410156 C 106.226562 123.46875 105.617188 123.5 105 123.5 C 104.386719 123.5 103.773438 123.46875 103.164062 123.410156 C 102.550781 123.347656 101.945312 123.257812 101.34375 123.140625 C 100.742188 123.019531 100.144531 122.871094 99.558594 122.691406 C 98.96875 122.515625 98.390625 122.308594 97.824219 122.074219 C 97.257812 121.839844 96.703125 121.574219 96.160156 121.285156 C 95.621094 120.996094 95.09375 120.683594 94.582031 120.339844 C 94.070312 120 93.578125 119.636719 93.105469 119.246094 C 92.628906 118.855469 92.175781 118.445312 91.742188 118.011719 C 91.308594 117.578125 90.894531 117.121094 90.503906 116.648438 C 90.117188 116.171875 89.75 115.679688 89.410156 115.171875 C 89.066406 114.660156 88.753906 114.132812 88.464844 113.59375 C 88.171875 113.050781 87.910156 112.496094 87.675781 111.929688 C 87.441406 111.363281 87.234375 110.785156 87.054688 110.199219 C 86.878906 109.613281 86.730469 109.015625 86.609375 108.414062 C 86.488281 107.8125 86.398438 107.207031 86.339844 106.597656 C 86.277344 105.984375 86.25 105.375 86.25 104.757812 C 86.25 104.144531 86.277344 103.535156 86.339844 102.921875 C 86.398438 102.3125 86.488281 101.707031 86.609375 101.101562 C 86.730469 100.5 86.878906 99.90625 87.054688 99.320312 C 87.234375 98.730469 87.441406 98.15625 87.675781 97.585938 C 87.910156 97.019531 88.171875 96.464844 88.464844 95.925781 C 88.753906 95.382812 89.066406 94.859375 89.410156 94.347656 C 89.75 93.835938 90.117188 93.34375 90.503906 92.871094 C 90.894531 92.394531 91.308594 91.941406 91.742188 91.507812 C 92.175781 91.074219 92.628906 90.664062 93.105469 90.273438 C 93.578125 89.882812 94.070312 89.519531 94.582031 89.175781 C 95.09375 88.835938 95.621094 88.519531 96.160156 88.230469 C 96.703125 87.941406 97.257812 87.679688 97.824219 87.445312 C 98.390625 87.210938 98.96875 87.003906 99.558594 86.828125 C 100.144531 86.648438 100.742188 86.5 101.34375 86.378906 C 101.945312 86.257812 102.550781 86.167969 103.164062 86.109375 C 103.773438 86.050781 104.386719 86.019531 105 86.019531 C 105.617188 86.019531 106.226562 86.050781 106.839844 86.109375 C 107.449219 86.167969 108.058594 86.257812 108.660156 86.378906 C 109.261719 86.5 109.855469 86.648438 110.445312 86.828125 C 111.03125 87.003906 111.609375 87.210938 112.175781 87.445312 C 112.746094 87.679688 113.300781 87.941406 113.839844 88.230469 C 114.382812 88.519531 114.910156 88.835938 115.417969 89.175781 C 115.929688 89.519531 116.421875 89.882812 116.898438 90.273438 C 117.371094 90.664062 117.828125 91.074219 118.261719 91.507812 C 118.695312 91.941406 119.105469 92.394531 119.496094 92.871094 C 119.886719 93.34375 120.253906 93.835938 120.59375 94.347656 C 120.933594 94.859375 121.25 95.382812 121.539062 95.925781 C 121.828125 96.464844 122.089844 97.019531 122.324219 97.585938 C 122.5625 98.15625 122.769531 98.730469 122.945312 99.320312 C 123.125 99.90625 123.273438 100.5 123.394531 101.101562 C 123.511719 101.707031 123.601562 102.3125 123.664062 102.921875 C 123.722656 103.535156 123.753906 104.144531 123.753906 104.757812 Z M 123.753906 104.757812 " fill-opacity="1" fill-rule="nonzero"/><path stroke-linecap="butt" transform="matrix(0.3738, 0, 0, 0.373555, 4.250796, 15.99151)" fill="none" stroke-linejoin="miter" d="M 269.527026 135.628611 C 336.888415 135.628611 399.463655 145.290844 446.635437 161.540963 C 503.484018 181.105938 538.429176 210.772339 538.429176 237.625818 C 538.429176 265.619105 501.393997 297.136388 440.354923 317.360152 C 394.196801 332.648231 333.47123 340.626893 269.527026 340.626893 C 203.973506 340.626893 141.899871 333.139708 95.229694 317.192841 C 36.18659 297.010904 0.624876 265.0858 0.624876 237.625818 C 0.624876 210.991936 33.992067 181.555588 90.035991 162.011526 C 137.395875 145.499983 201.50728 135.628611 269.527026 135.628611 Z M 269.527026 135.628611 " stroke="#00d8ff" stroke-width="24" stroke-opacity="1" stroke-miterlimit="4"/><g clip-path="url(#e46e3249c7)"><path stroke-linecap="butt" transform="matrix(0.3738, 0, 0, 0.373555, 4.250796, 15.99151)" fill="none" stroke-linejoin="miter" d="M 180.742918 186.920009 C 214.392262 128.570162 254.019067 79.202844 291.660352 46.441183 C 337.013816 6.976608 380.162307 -8.478781 403.434695 4.937501 C 427.678943 18.918459 436.467483 66.748603 423.4989 129.741341 C 413.6967 177.351889 390.267561 233.944967 358.321584 289.335494 C 325.570949 346.127255 288.075966 396.15336 250.936286 428.61177 C 203.963056 469.67626 158.536441 484.535603 134.762448 470.816069 C 111.678162 457.514813 102.858272 413.898825 113.924935 355.590805 C 123.27778 306.317601 146.759171 245.84499 180.722018 186.930466 Z M 180.742918 186.920009 " stroke="#00d8ff" stroke-width="24" stroke-opacity="1" stroke-miterlimit="4"/><path stroke-linecap="butt" transform="matrix(0.3738, 0, 0, 0.373555, 4.250796, 15.99151)" fill="none" stroke-linejoin="miter" d="M 180.816069 289.481892 C 147.083124 231.194786 124.103339 172.196607 114.510141 123.226654 C 102.962773 64.228475 111.124306 19.117141 134.375794 5.659031 C 158.599142 -8.363755 204.43331 7.907278 252.514252 50.603054 C 288.870174 82.883695 326.197955 131.435369 358.237983 186.773612 C 391.082669 243.50263 415.692671 300.98455 425.264968 349.347999 C 437.387092 410.563054 427.584892 457.326588 403.821349 471.08795 C 380.757963 484.44149 338.570882 470.303677 293.572722 431.592004 C 255.565683 398.882627 214.893867 348.333674 180.816069 289.471435 Z M 180.816069 289.481892 " stroke="#00d8ff" stroke-width="24" stroke-opacity="1" stroke-miterlimit="4"/></g></svg>